<?xml version="1.0" standalone="no"?>
<!DOCTYPE svg PUBLIC "-//W3C//DTD SVG 1.1//EN" "http://www.w3.org/Graphics/SVG/1.1/DTD/svg11.dtd" >
<svg xmlns="http://www.w3.org/2000/svg">
<metadata></metadata>
<defs>
<font id="st_ryde_italicitalic" horiz-adv-x="1361" >
<font-face units-per-em="2048" ascent="1638" descent="-410" />
<missing-glyph horiz-adv-x="450" />
<glyph unicode="&#xfb01;" horiz-adv-x="1226" d="M152 899q0 88 81 88h60l16 187q12 147 80 209.5t195 62.5q101 0 140.5 -20t39.5 -56q0 -49 -25 -78h-139q-64 0 -96 -30t-39 -109l-14 -166h229q10 -17 10 -45q0 -35 -18 -62.5t-60 -27.5h-174l-69 -799q-5 -53 -95 -53q-49 0 -67 18l74 834h-119q-10 15 -10 47zM834 885 q0 104 137 104q70 0 102.5 -35.5t24.5 -128.5l-56 -643q-5 -53 41 -53h56q8 -11 8 -39q0 -90 -141 -90q-67 0 -97.5 33t-23.5 108l55 641q5 58 -43 58h-55q-8 13 -8 45zM940 1257q0 113 111 113q90 0 90 -88q0 -115 -111 -115q-90 0 -90 90z" />
<glyph unicode="&#xfb02;" horiz-adv-x="1257" d="M152 899q0 88 81 88h60l16 187q12 147 80 209.5t195 62.5q101 0 140.5 -20t39.5 -56q0 -49 -25 -78h-139q-64 0 -96 -30t-39 -109l-14 -166h229q10 -17 10 -45q0 -35 -18 -62.5t-60 -27.5h-174l-69 -799q-5 -53 -95 -53q-49 0 -67 18l74 834h-119q-10 15 -10 47zM836 252 l102 1159q30 23 76 23q43 -1 59.5 -19.5t13.5 -50.5l-94 -1075q-7 -87 18.5 -119.5t94.5 -32.5h131q2 -10 2 -33q0 -46 -49.5 -75t-151.5 -29q-118 0 -165.5 59.5t-36.5 192.5z" />
<glyph horiz-adv-x="0" />
<glyph horiz-adv-x="0" />
<glyph horiz-adv-x="682" />
<glyph unicode="&#xd;" horiz-adv-x="0" />
<glyph unicode=" "  horiz-adv-x="450" />
<glyph unicode="&#x09;" horiz-adv-x="450" />
<glyph unicode="&#xa0;" horiz-adv-x="450" />
<glyph unicode="!" horiz-adv-x="407" d="M117 82q0 108 100 108q86 0 86 -84q0 -106 -102 -106q-84 0 -84 82zM154 391l90 1026q27 17 75 17q36 0 59.5 -15.5t20.5 -48.5l-92 -1044q-23 -23 -82 -23q-79 0 -71 88z" />
<glyph unicode="&#x22;" horiz-adv-x="581" d="M188 1079l27 305q3 29 20.5 40.5t55.5 11.5q42 0 59 -18.5t17 -65.5q0 -129 -31 -211t-82 -82q-43 0 -66 20zM426 1079l27 305q1 29 19 40.5t56 11.5q41 0 58.5 -19t17.5 -65q0 -129 -31 -211t-81 -82q-43 0 -66 20z" />
<glyph unicode="#" horiz-adv-x="1550" d="M78 338q0 45 21 69.5t81 24.5h246l106 434h-307q-12 36 -12 54q0 45 21.5 71.5t80.5 26.5h258l107 424q29 16 76 16q37 0 59 -15t14 -48l-92 -377h389l107 424q29 16 76 16q37 0 59 -15t14 -48l-94 -377h301q13 -13 13 -47q0 -42 -25 -73.5t-90 -31.5h-238l-106 -434h311 q10 -17 10 -47q0 -104 -112 -104h-250l-92 -373q-27 -19 -80 -19q-36 0 -58 17t-10 59l76 316h-389l-92 -373q-27 -19 -80 -19q-36 0 -58 17t-10 59l76 316h-295q-1 4 -4.5 14.5t-5.5 20.5t-2 22zM588 432h391l106 434h-389z" />
<glyph unicode="$" horiz-adv-x="1163" d="M125 188q0 30 13 60t28 47q57 -65 156.5 -108t212.5 -50l57 531q-94 55 -152 95.5t-105.5 88.5t-68 100.5t-20.5 116.5q0 164 107 268.5t321 114.5l20 199q29 18 62 18q55 0 49 -55l-19 -164q111 -7 187.5 -41t116.5 -78q26 -29 26 -71q0 -46 -59 -93q-106 106 -287 121 l-53 -510q51 -31 83 -51.5t69.5 -46.5t59.5 -46t46 -45.5t37 -49t24.5 -53t16 -62t4.5 -70.5q0 -157 -108 -258.5t-316 -113.5l-21 -205q-20 -17 -53 -17q-30 0 -44.5 16t-10.5 56l16 150q-202 14 -319 98q-76 54 -76 108zM410 1079q0 -62 45 -113t155 -120l45 442 q-130 -7 -187.5 -64.5t-57.5 -144.5zM651 139q70 7 120.5 29.5t76.5 54t37.5 63.5t11.5 66q0 79 -41.5 129t-157.5 123z" />
<glyph unicode="%" horiz-adv-x="1802" d="M154 926q0 250 98 378t250 128q124 0 196 -88t72 -263q0 -259 -95 -381t-253 -122q-125 0 -196.5 85.5t-71.5 262.5zM276 930q0 -128 43 -188t113 -60q97 0 154 93.5t57 297.5q0 124 -40.5 187t-110.5 63q-91 0 -153.5 -100t-62.5 -293zM608 80l586 1343q28 11 63 11 q38 0 52.5 -17t1.5 -49l-600 -1360q-28 -12 -64 -12q-80 0 -39 84zM1163 342q0 250 98 378t250 128q125 0 197 -88t72 -262q0 -133 -26.5 -232t-74.5 -157.5t-109.5 -86.5t-137.5 -28q-125 0 -197 85.5t-72 262.5zM1286 346q0 -128 43 -188t113 -60q97 0 154 93.5t57 297.5 q0 124 -41 187t-111 63q-91 0 -153 -99.5t-62 -293.5z" />
<glyph unicode="&#x26;" horiz-adv-x="1562" d="M137 379q0 95 28 175.5t77 138.5t107.5 99t127.5 68q-2 23 -2 66q0 252 119 379t342 127q124 0 184 -26t60 -67q0 -43 -21 -75h-221q-162 0 -231.5 -80.5t-69.5 -268.5q0 -190 70.5 -351t191.5 -265q87 93 149 217t91 254h-254q-11 33 -11 55q0 44 20.5 65t72.5 21h501 q15 -15 15 -57q0 -84 -74 -84h-152q-31 -147 -95.5 -289.5t-157.5 -253.5q120 -63 251 -63h185q8 -19 8 -58q0 -56 -42 -81t-151 -25q-193 0 -366 115q-170 -135 -375 -135q-173 0 -275 108.5t-102 290.5zM283 387q0 -116 66 -191t179 -75q133 0 254 78q-108 101 -184 239.5 t-106 296.5q-209 -102 -209 -348z" />
<glyph unicode="'" horiz-adv-x="344" d="M188 1079l27 305q3 29 20.5 40.5t55.5 11.5q42 0 59 -18.5t17 -65.5q0 -129 -31 -211t-82 -82q-43 0 -66 20z" />
<glyph unicode="(" horiz-adv-x="466" d="M100 438q0 182 22.5 346.5t60 285t85 209.5t98.5 134t99 45q33 0 56 -19t26 -55q-53 -39 -102 -114.5t-91.5 -189t-68 -278t-25.5 -356.5q0 -229 44 -383.5t116 -214.5q-21 -77 -98 -77q-44 0 -84.5 48.5t-71 134.5t-48.5 212t-18 272z" />
<glyph unicode=")" horiz-adv-x="466" d="M49 -156q53 39 101.5 114.5t91.5 189t68.5 279t25.5 357.5q0 228 -44.5 382.5t-117.5 213.5q21 78 98 78q61 0 111.5 -82.5t81.5 -236.5t31 -348q0 -181 -22.5 -346t-60 -285t-85 -209.5t-98 -134.5t-97.5 -45q-34 0 -57.5 19t-26.5 54z" />
<glyph unicode="*" horiz-adv-x="1001" d="M215 1022q0 45 19.5 72.5t68.5 19.5l211 -24l-143 241q25 32 57 51q90 52 109 -28l65 -213l133 264q35 4 76 -19q14 -10 25 -24.5t11 -39t-22 -46.5l-147 -186l278 26q15 -30 15 -57q0 -40 -22.5 -71t-69.5 -23l-211 22l141 -237q-24 -36 -55 -54q-13 -7 -28 -11 t-32 -3.5t-31 12.5t-20 35l-61 209l-140 -264q-37 3 -65 20q-79 49 -21 107l150 188l-279 -24q-12 32 -12 57z" />
<glyph unicode="+" horiz-adv-x="1001" d="M147 522q0 45 17 73t53 28h262l29 331q20 17 80 17q74 0 69 -78l-24 -270h305q10 -13 10 -58q0 -96 -80 -96h-250l-28 -334q-32 -16 -78 -16q-39 0 -56 18.5t-14 65.5l23 266h-307q-11 29 -11 53z" />
<glyph unicode="," horiz-adv-x="346" d="M86 82q0 108 100 108q44 0 66 -26.5t22 -89.5q0 -117 -37.5 -193t-86.5 -76q-25 0 -37 7.5t-15 27.5q29 24 48.5 74.5t21.5 85.5q-82 0 -82 82z" />
<glyph unicode="-" horiz-adv-x="821" d="M150 528q0 95 88 95h516q12 -20 12 -56q0 -48 -21.5 -73t-72.5 -25h-510q-12 32 -12 59z" />
<glyph unicode="." horiz-adv-x="337" d="M86 82q0 108 100 108q84 0 84 -84q0 -106 -102 -106q-82 0 -82 82z" />
<glyph unicode="/" horiz-adv-x="575" d="M66 -35l372 1477q26 16 76 16q36 0 57.5 -15t14.5 -48l-375 -1487q-27 -19 -80 -19q-84 0 -65 76z" />
<glyph unicode="0" horiz-adv-x="1138" d="M143 479q0 164 42 293.5t115.5 211.5t170 124.5t209.5 42.5q192 0 304 -122t112 -367q0 -138 -27 -250t-75 -189.5t-115 -130t-145.5 -76.5t-168.5 -24q-94 0 -170 28t-133 85.5t-88 152t-31 221.5zM301 489q0 -187 73 -273.5t201 -86.5q162 0 260.5 129t98.5 393 q0 178 -70 268.5t-196 90.5q-74 0 -139.5 -33.5t-117 -96.5t-81 -164t-29.5 -227z" />
<glyph unicode="1" horiz-adv-x="929" d="M147 59q0 45 20 68t81 23h205l69 747q-70 -41 -150 -64.5t-134 -23.5q-27 0 -45.5 15t-18.5 48t27 72q255 47 342 182q28 21 73 21q35 0 59 -15.5t21 -48.5l-82 -933h267q12 -30 12 -56q0 -42 -19.5 -68t-54.5 -26h-659q-13 29 -13 59z" />
<glyph unicode="2" horiz-adv-x="962" d="M59 57q0 102 60 140q69 39 112.5 64.5t118.5 72.5t125 84.5t109.5 90t95 99t60 101.5t24.5 108q0 176 -242 176q-101 0 -193.5 -37t-129.5 -90q-56 27 -56 84q0 70 113 135.5t289 65.5q187 0 285 -81t98 -220q0 -80 -31 -159t-85 -146t-119 -127.5t-142.5 -111.5 t-145.5 -89.5t-137 -69.5h639q8 -13 8 -47q0 -20 -5 -41t-20 -40t-38 -19h-784q-9 36 -9 57z" />
<glyph unicode="3" horiz-adv-x="999" d="M51 -14q0 90 78 110q50 -221 297 -221q174 0 259 80t85 207q0 94 -64 152.5t-169 58.5h-66q-37 0 -37 57q0 48 21 76q146 1 233 68.5t96 177.5q8 104 -56 169.5t-193 65.5q-108 0 -195.5 -42.5t-126.5 -108.5q-28 12 -41.5 29t-13.5 48q0 36 25.5 76t72.5 76.5t126.5 60 t176.5 23.5q189 0 289 -96.5t100 -249.5q0 -122 -68.5 -221.5t-170.5 -124.5l-2 -4q99 -23 159 -98t60 -199q0 -87 -30 -162.5t-89 -136.5t-157 -96t-224 -35q-84 0 -151 18t-108 45.5t-68 63t-37.5 68.5t-10.5 65z" />
<glyph unicode="4" horiz-adv-x="1101" d="M61 43q0 34 21 88l362 973q26 16 88 16q35 0 49.5 -20t2.5 -49l-340 -912h465l47 533q33 22 82 22q68 0 65 -59l-43 -496h182q11 -15 11 -55q0 -84 -62 -84h-143l-23 -279q-25 -14 -86 -14q-31 0 -48.5 15t-14.5 47l20 231h-622q-13 16 -13 43z" />
<glyph unicode="5" horiz-adv-x="1021" d="M76 -4q0 84 76 100q5 -34 17.5 -66t38 -64.5t60 -56.5t87.5 -39t118 -15q170 0 259 97.5t89 244.5q0 129 -81.5 192.5t-221.5 63.5q-80 0 -178.5 -22.5t-128.5 -22.5q-27 0 -40 19t-9 54l78 641q37 21 98 21h661q15 -30 15 -56q0 -44 -19.5 -71t-54.5 -27h-569l-58 -450 q118 47 260 47q180 0 291 -95t111 -284q0 -99 -32.5 -186t-95 -156.5t-165 -109.5t-233.5 -40q-99 0 -175 29t-117 74t-61 90.5t-20 87.5z" />
<glyph unicode="6" horiz-adv-x="1069" d="M152 526q0 194 36 355.5t105.5 281.5t179 187t248.5 67q145 0 237.5 -53t92.5 -119q0 -52 -50 -86q-63 53 -112 75q-77 34 -170 34q-111 0 -195.5 -68.5t-133.5 -180t-71 -261.5q161 82 328 82q176 0 284.5 -94t108.5 -283q0 -72 -15.5 -139.5t-51 -131t-87.5 -110 t-131 -74.5t-175 -28q-202 0 -315 138.5t-113 407.5zM305 528q0 -405 277 -405q80 0 139.5 26t94.5 72t52 103.5t17 126.5q0 125 -71.5 187t-195.5 62q-168 0 -311 -86q-2 -29 -2 -86z" />
<glyph unicode="7" horiz-adv-x="919" d="M92 1044q0 41 19.5 69t52.5 28h813q6 -18 6 -41q0 -45 -27 -107l-518 -1251q-28 -14 -82 -14q-40 0 -53 19t-2 50l490 1186h-687q-12 20 -12 61z" />
<glyph unicode="8" horiz-adv-x="1046" d="M111 330q0 280 286 399q-180 106 -180 303q0 171 117.5 277t310.5 106q173 0 270 -84t97 -235q0 -128 -71 -222.5t-181 -142.5q113 -51 177 -126.5t64 -192.5q0 -87 -27.5 -162.5t-83 -137t-150.5 -97t-220 -35.5q-200 0 -304.5 96.5t-104.5 253.5zM264 356 q0 -106 69 -170.5t206 -64.5q152 0 230.5 75.5t78.5 190.5q0 101 -72 162.5t-211 107.5q-11 3 -49 17q-118 -47 -185 -121.5t-67 -196.5zM367 1049q0 -54 21 -98.5t61.5 -76.5t86.5 -55t107 -43q100 37 162.5 113t62.5 188q0 93 -61 148t-170 55q-118 0 -194 -64t-76 -167z " />
<glyph unicode="9" horiz-adv-x="1058" d="M74 -106q0 52 49 88q29 -24 65.5 -47.5t109 -49.5t144.5 -26q190 0 284 125t116 393q-146 -109 -363 -109q-69 0 -132.5 24t-114.5 68t-81 114.5t-30 156.5t17 161.5t54 141.5t92 113.5t136 74.5t180 27q406 0 406 -571q0 -869 -549 -869q-167 0 -275 60.5t-108 124.5z M274 651q0 -120 67.5 -184t174.5 -64q190 0 332 115q0 10 1 31t1 31q0 223 -67.5 324.5t-198.5 101.5q-151 0 -230.5 -99t-79.5 -256z" />
<glyph unicode=":" horiz-adv-x="337" d="M86 82q0 108 100 108q84 0 84 -84q0 -106 -102 -106q-82 0 -82 82zM158 915q0 109 100 109q86 0 86 -84q0 -106 -102 -106q-84 0 -84 81z" />
<glyph unicode=";" horiz-adv-x="346" d="M86 82q0 108 100 108q44 0 66 -26.5t22 -89.5q0 -117 -37.5 -193t-86.5 -76q-25 0 -37 7.5t-15 27.5q29 24 48.5 74.5t21.5 85.5q-82 0 -82 82zM162 915q0 109 100 109q86 0 86 -84q0 -106 -104 -106q-82 0 -82 81z" />
<glyph unicode="&#x3c;" horiz-adv-x="681" d="M113 492q0 32 11 52t44 46l440 411q18 9 39 9t37 -22t16 -44q0 -29 -34 -63l-406 -385l346 -392q8 -12 8 -36q0 -28 -23 -47t-46 -19q-30 0 -58 31l-354 399q-1 2 -6 11.5t-7 14t-4.5 14.5t-2.5 20z" />
<glyph unicode="=" horiz-adv-x="1001" d="M129 313q0 41 19 67t55 26h717q10 -23 10 -60q0 -96 -84 -96h-705q-12 36 -12 63zM164 705q0 41 19 65.5t57 24.5h714q9 -18 9 -58q0 -96 -82 -96h-707q-10 40 -10 64z" />
<glyph unicode="&#x3e;" horiz-adv-x="681" d="M70 66q0 27 36 63l406 385l-348 389q-8 32 -8 37q0 30 23 50t46 20q29 0 60 -31l354 -399q18 -32 18 -60q0 -33 -10.5 -52.5t-42.5 -45.5l-440 -414q-21 -6 -41 -6q-21 0 -37 20.5t-16 43.5z" />
<glyph unicode="?" horiz-adv-x="948" d="M168 1174q0 36 25.5 76t72.5 77t126.5 61.5t176.5 24.5q180 0 284.5 -101t104.5 -268q0 -100 -33 -184.5t-90.5 -143t-134 -95.5t-165.5 -48l-13 -268q-23 -20 -78 -20q-30 0 -45.5 17t-15.5 46l16 264q0 42 21 66q67 2 131 23t120.5 59t91 102t34.5 144 q0 118 -68.5 182.5t-183.5 64.5q-108 0 -197 -47t-127 -116q-53 22 -53 84zM350 82q0 108 101 108q86 0 86 -84q0 -106 -101 -106q-86 0 -86 82z" />
<glyph unicode="@" horiz-adv-x="1660" d="M100 389q0 194 63.5 359.5t174.5 282t267 182t337 65.5q211 0 371 -90.5t244.5 -250t84.5 -364.5q0 -130 -34.5 -239t-94.5 -181.5t-139.5 -112.5t-169.5 -40q-80 -2 -123 37.5t-34 118.5l6 73q-117 -243 -297 -243q-51 0 -97.5 21.5t-85 64t-61.5 115.5t-23 167 q0 110 23.5 201t63 151.5t91.5 102.5t108 61t114 19q129 0 211 -131l8 78q3 53 61 53q51 0 74 -19l-63 -698q-4 -35 12 -50.5t53 -15.5q106 0 186 126.5t80 330.5q0 168 -68.5 299t-201 206t-311.5 75q-149 0 -278.5 -55.5t-221.5 -153.5t-144.5 -237t-52.5 -300 q0 -284 160 -447t422 -163q146 0 235.5 20t186.5 62q33 -22 33 -51q0 -49 -58 -74q-164 -86 -411 -86q-152 0 -281 51t-222 144t-145.5 231t-52.5 305zM629 369q0 -126 46 -192t130 -66q82 0 150 82.5t116 226.5l16 186q-37 81 -80.5 117.5t-113.5 36.5q-47 0 -91.5 -21.5 t-84 -65.5t-64 -122.5t-24.5 -181.5z" />
<glyph unicode="A" horiz-adv-x="1232" d="M37 23l610 1384q20 11 27.5 14.5t28 8t45.5 4.5q64 0 81 -62l373 -1335q-19 -37 -84 -37q-70 0 -86 63l-78 283h-616l-129 -295q-12 -28 -34 -39.5t-62 -11.5q-56 0 -76 23zM399 483h519l-199 727z" />
<glyph unicode="B" horiz-adv-x="1277" d="M203 76l116 1343q24 15 82 15h13h407q76 0 137.5 -17t110.5 -54t75.5 -101.5t26.5 -153.5q0 -251 -194 -358q99 -35 159 -112t60 -198q0 -88 -27 -162t-73 -124.5t-107 -85.5t-127.5 -51.5t-136.5 -16.5h-449q-38 0 -58 16q-16 13 -16 46q0 6 1 14zM369 137h321 q72 0 131 15.5t107.5 49.5t76 94.5t27.5 143.5q0 125 -80.5 177.5t-226.5 52.5h-311zM426 803h297q295 4 295 295q0 110 -60.5 155t-177.5 45h-311z" />
<glyph unicode="C" horiz-adv-x="1224" d="M174 586q0 208 47 374t131.5 273.5t199.5 164t253 56.5q108 0 188.5 -24t125.5 -58.5t83 -85.5q37 -37 37 -80q0 -32 -18.5 -55t-44.5 -29q-59 89 -150 133.5t-227 44.5q-204 0 -333.5 -184t-129.5 -516q0 -242 98.5 -356.5t272.5 -114.5q250 0 405 172q24 2 44 -13 t20 -46q0 -58 -62 -103q-175 -159 -428 -159q-235 0 -373.5 155t-138.5 451z" />
<glyph unicode="D" horiz-adv-x="1333" d="M203 76l116 1341q27 17 82 17h263q310 0 464 -140.5t154 -441.5q0 -434 -186 -643t-529 -209h-276h-15q-38 0 -58 16q-16 13 -16 46q0 6 1 14zM371 145h198q278 0 414.5 169t136.5 528q0 227 -115.5 333.5t-355.5 106.5h-180z" />
<glyph unicode="E" horiz-adv-x="1216" d="M203 76l116 1341q27 17 78 17h13h817q12 -20 12 -52q0 -46 -19.5 -74t-54.5 -28h-696l-41 -469h631q12 -16 12 -55q0 -46 -18 -71.5t-52 -25.5h-587l-45 -505h745q12 -16 12 -52q0 -47 -18.5 -74.5t-52.5 -27.5h-772h-15q-33 0 -51 16q-15 13 -15 45q0 7 1 15z" />
<glyph unicode="F" horiz-adv-x="1189" d="M203 76l116 1341q27 17 78 17h13h804q15 -25 15 -52q0 -47 -19 -74.5t-55 -27.5h-686l-43 -494h635q12 -20 12 -53q0 -46 -19 -73t-55 -27h-587l-54 -617q-19 -16 -90 -16q-33 0 -51 16q-15 13 -15 45q0 7 1 15z" />
<glyph unicode="G" horiz-adv-x="1343" d="M176 602q0 208 51.5 373t141.5 268t207.5 157t254.5 54q100 0 184 -19.5t133 -49.5t76 -62.5t27 -60.5q0 -34 -19.5 -59t-43.5 -27q-66 61 -149.5 96t-215.5 35q-99 0 -187 -43.5t-157 -127t-109 -218t-40 -304.5q0 -127 29 -224.5t79.5 -156t114.5 -87.5t139 -29 q115 0 220 66.5t175 178.5l23 244h-354q-11 29 -11 51q0 82 101 82h301q66 0 86 -29q14 -20 14 -63q0 -18 -2 -39l-49 -592q-30 -18 -76 -18q-31 0 -45.5 14t-11.5 54l12 141q-85 -106 -191 -166.5t-222 -60.5q-103 0 -189.5 37t-153.5 111t-105 195.5t-38 278.5z" />
<glyph unicode="H" horiz-adv-x="1404" d="M203 78l116 1339q31 17 89 17q34 0 52 -15.5t15 -50.5l-49 -563h692l56 612q34 17 86 17q34 0 52 -16q15 -13 15 -40v-10l-117 -1350q-29 -18 -75 -18q-42 0 -63 16q-18 13 -18 48q0 7 1 14l51 581h-692l-56 -639q-23 -20 -90 -20q-33 0 -51 16q-15 13 -15 46q0 8 1 16z " />
<glyph unicode="I" horiz-adv-x="555" d="M203 78l116 1339q31 17 89 17q36 0 54 -16q16 -13 15 -41v-9l-119 -1348q-38 -20 -88 -20q-68 0 -68 64q0 6 1 14z" />
<glyph unicode="J" horiz-adv-x="747" d="M47 92q0 33 16 66h197q77 0 118 37t48 120l96 1102q34 17 82 17q36 0 52 -15q14 -13 14 -42v-11l-95 -1087q-22 -279 -286 -279q-121 0 -181.5 25t-60.5 67z" />
<glyph unicode="K" horiz-adv-x="1181" d="M203 76l116 1339q38 19 87 19q37 0 54.5 -15t14.5 -49l-55 -618q172 125 322.5 312.5t226.5 356.5q32 13 71 13q23 0 39.5 -15.5t16.5 -38.5q0 -36 -39 -102q-167 -288 -406 -502q35 -42 77 -125t78.5 -166.5t75 -162.5t81.5 -129t84 -50h55q10 -13 10 -43 q0 -100 -131 -100q-58 0 -110 49t-94 130.5t-78.5 167.5t-79.5 182t-80 151q-70 -50 -133 -92l-50 -570q-30 -18 -92 -18q-34 0 -50 17q-12 14 -12 43q0 7 1 16z" />
<glyph unicode="L" horiz-adv-x="1036" d="M203 74l116 1345q30 15 84 15q32 0 55 -16t19 -48l-106 -1216h626q15 -25 15 -58q0 -96 -101 -96h-628h-15q-36 0 -52 16q-13 13 -14 43q0 7 1 15z" />
<glyph unicode="M" horiz-adv-x="1718" d="M162 14l203 1307q17 113 120 113q43 0 80 -13l314 -1126l442 1053q31 86 115 86q49 0 96 -21l29 -1393q-33 -20 -88 -20q-78 0 -80 59l6 1090l-420 -983q-21 -55 -48.5 -71.5t-70.5 -16.5q-40 0 -63 20t-35 68l-277 983l-157 -1090q-10 -59 -86 -59q-48 0 -80 14z" />
<glyph unicode="N" horiz-adv-x="1409" d="M203 76l116 1341q34 17 89 17q49 0 69 -41l604 -1084l95 1104q32 21 81 21q33 0 57 -16q21 -14 21 -41v-7l-118 -1356q-25 -14 -84 -14q-53 0 -74 43l-606 1063l-93 -1088q-22 -18 -94 -18q-32 0 -50 15q-14 12 -14 45q0 7 1 16z" />
<glyph unicode="O" d="M174 594q0 210 49 375.5t136.5 270.5t204.5 159.5t257 54.5q227 0 359.5 -157.5t132.5 -462.5q0 -221 -49 -388t-137.5 -267.5t-203 -149.5t-253.5 -49q-226 0 -361 153.5t-135 460.5zM336 608q0 -247 93.5 -366t248.5 -119q473 0 473 702q0 236 -91.5 361t-246.5 125 q-218 0 -347.5 -182.5t-129.5 -520.5z" />
<glyph unicode="P" horiz-adv-x="1193" d="M203 76l116 1343q30 15 82 15h420q154 0 251 -94t97 -275q0 -112 -28.5 -200t-75.5 -143.5t-112 -91.5t-132.5 -50.5t-142.5 -14.5h-272l-48 -549q-29 -16 -90 -16q-34 0 -52 16q-14 13 -14 45q0 7 1 15zM418 705h248q168 0 258 80t90 266q0 122 -60.5 184.5t-167.5 62.5 h-315z" />
<glyph unicode="Q" d="M174 604q0 205 48 368t134 267.5t202 159.5t255 55q233 0 366.5 -159t133.5 -470q0 -307 -97.5 -506t-269.5 -280q40 -104 96 -158.5t123 -54.5h95q8 -16 8 -47q0 -51 -39.5 -82t-108.5 -31q-212 0 -321 324q-62 -10 -115 -10q-236 0 -373 154.5t-137 469.5zM336 610 q0 -251 97.5 -368t268.5 -117q211 0 330 173t119 525q0 237 -93.5 361.5t-256.5 124.5q-209 0 -337 -184.5t-128 -514.5z" />
<glyph unicode="R" horiz-adv-x="1286" d="M203 76l116 1343q27 15 82 15h420q160 0 258.5 -85t98.5 -266q0 -92 -29 -171t-79 -133.5t-110.5 -90.5t-128.5 -53q32 -52 72.5 -147t69 -165t71.5 -125t89 -55h55q8 -11 8 -43q0 -100 -129 -100q-57 0 -103.5 43t-81.5 116.5t-64.5 151t-68 167.5t-75.5 145h-262 l-54 -605q-24 -18 -82 -18q-39 0 -58 16q-16 13 -16 45q0 7 1 15zM422 754h285q137 0 227 80t90 237q0 229 -244 229h-309z" />
<glyph unicode="S" horiz-adv-x="1163" d="M125 188q0 30 13 60t28 47q65 -72 180 -116t242 -44q72 0 128 14t89 36t54.5 52t29.5 58t8 57q0 90 -53.5 146t-216.5 151q-84 48 -136.5 81.5t-104.5 74.5t-79 78.5t-44 84.5t-17 101q0 172 116 278.5t338 106.5q153 0 248.5 -36t141.5 -87q26 -29 26 -71q0 -46 -59 -93 q-130 125 -371 125q-142 0 -209 -59t-67 -154q0 -72 60 -129.5t224 -156.5q60 -37 88.5 -55t73 -48t64 -47.5t48.5 -45.5t41 -51t25.5 -54t18 -64.5t4.5 -73.5q0 -166 -121.5 -270t-353.5 -104q-238 0 -381 100q-76 54 -76 108z" />
<glyph unicode="T" horiz-adv-x="1142" d="M147 1346q0 88 91 88h440h14h13h516q12 -20 12 -56q0 -45 -18.5 -71.5t-53.5 -26.5h-399l-109 -1264q-24 -16 -92 -16q-62 0 -62 61q0 7 1 15l104 1204h-444q-13 35 -13 66z" />
<glyph unicode="U" horiz-adv-x="1341" d="M227 520l78 897q27 17 82 17q37 0 57 -15t17 -49l-72 -827q-4 -46 -4 -86q-1 -146 53 -227q68 -103 240 -103q180 0 269.5 113t109.5 329l76 848q24 17 81 17q37 0 57 -16q17 -13 17 -41v-9l-71 -819q-25 -274 -166 -421.5t-394 -147.5q-241 0 -347 132q-87 109 -87 314 q0 45 4 94z" />
<glyph unicode="V" horiz-adv-x="1241" d="M168 1415q55 19 98 19q66 0 80 -56l313 -1165q154 222 317.5 599.5t201.5 602.5q43 19 86 19q23 0 37 -10t14 -27q0 -30 -17 -113q-52 -216 -231.5 -607t-374.5 -665q-34 -12 -71 -12q-56 0 -74 66z" />
<glyph unicode="W" horiz-adv-x="1916" d="M158 1417q34 17 94 17q64 0 78 -56l299 -1157q87 127 198.5 346t192.5 424l-117 426q34 17 94 17q64 0 78 -56l316 -1157q140 211 284 586.5t187 607.5q40 19 88 19q24 0 39.5 -11t15.5 -28q0 -30 -23 -117q-24 -96 -74 -240.5t-121.5 -321t-168.5 -367.5t-195 -337 q-35 -12 -71 -12q-55 0 -76 66l-199 712q-202 -453 -413 -764q-38 -12 -72 -12q-55 0 -76 66z" />
<glyph unicode="X" horiz-adv-x="1286" d="M78 37l518 711l-363 645q15 21 35 31t58 10q45 0 71.5 -18.5t53.5 -61.5l270 -482l360 500q42 62 125 62q66 0 84 -33l-491 -666l399 -702q-16 -13 -24.5 -18.5t-27.5 -10t-46 -4.5q-74 0 -119 66l-305 538l-400 -549q-38 -55 -118 -55q-61 0 -80 37z" />
<glyph unicode="Y" horiz-adv-x="1134" d="M190 1409q36 25 86 25q34 0 51.5 -12t24.5 -42q76 -397 283 -786q134 188 260.5 439.5t161.5 389.5q25 11 80 11q24 0 40 -17q13 -14 13 -34v-7q-11 -118 -176 -415.5t-307 -483.5l-41 -459q-29 -18 -91 -18q-36 0 -53 14t-14 45l37 412q-270 481 -355 938z" />
<glyph unicode="Z" horiz-adv-x="1222" d="M63 45q0 55 35 96l887 1141h-747q-13 39 -13 57q0 42 19 68.5t59 26.5h914q8 -11 8 -41q0 -53 -39 -101l-889 -1151h850q8 -20 8 -55q0 -86 -82 -86h-1001q-9 21 -9 45z" />
<glyph unicode="[" horiz-adv-x="604" d="M98 -150l140 1584q40 24 108 24h309q13 -22 13 -57q0 -44 -15.5 -72.5t-46.5 -28.5h-225l-119 -1372h260q13 -17 13 -55q0 -44 -18 -72t-50 -28h-356q-15 38 -13 77z" />
<glyph unicode="\" horiz-adv-x="575" d="M188 1395q-1 33 24 48t62 15q44 0 70 -16l113 -1477q5 -42 -19 -59t-59 -17q-53 0 -76 19z" />
<glyph unicode="]" horiz-adv-x="604" d="M98 -174q0 44 15.5 73t46.5 29h225l119 1370h-260q-13 22 -13 56q0 46 17.5 74t50.5 28h356q15 -38 13 -80l-140 -1581q-40 -24 -108 -24h-309q-13 17 -13 55z" />
<glyph unicode="^" horiz-adv-x="927" d="M240 1188q21 11 67.5 51t89.5 78t91 69t77 31q36 0 92.5 -47.5t115.5 -107t83 -74.5q-13 -48 -49 -53q-17 -6 -37 0q-25 6 -57.5 29.5t-83.5 68t-70 59.5q-19 -13 -79.5 -59t-97 -69t-63.5 -29q-20 -7 -34 0q-38 6 -45 53z" />
<glyph unicode="_" horiz-adv-x="1091" d="M0 -254q0 36 20.5 63t61.5 27h999q11 -18 11 -59q0 -39 -17 -67.5t-53 -28.5h-1010q-12 32 -12 65z" />
<glyph unicode="`" horiz-adv-x="1036" d="M383 1346q7 69 84 69q27 0 70 -30.5t79.5 -68.5t76.5 -78t59 -52q-19 -60 -74 -60q-30 0 -82.5 42t-115 99.5t-97.5 78.5z" />
<glyph unicode="a" horiz-adv-x="1067" d="M131 389q0 121 25.5 224t69 174.5t100 122t118.5 74.5t125 24q141 0 228 -138l6 76q3 62 65 62q55 0 84 -21l-67 -794q-1 -8 -1 -16q0 -54 52 -54h63q9 -18 9 -43q0 -37 -30.5 -58.5t-92.5 -21.5q-71 0 -115 45q-36 37 -37 101q0 13 2 28l6 78q-128 -272 -323 -272 q-55 0 -105 24.5t-91.5 72.5t-66 128.5t-24.5 183.5zM285 408q0 -138 50 -212q49 -72 135 -71h5q85 0 158 90.5t127 245.5l22 248q-38 81 -86 119t-121 38q-50 0 -100 -29t-93 -83.5t-70 -144.5t-27 -201z" />
<glyph unicode="b" horiz-adv-x="991" d="M135 168l113 1245q31 21 80 21q33 0 50.5 -15t16.5 -47l-55 -618q73 127 146.5 188.5t156.5 61.5q128 0 210.5 -107t82.5 -309q0 -153 -35.5 -271.5t-99 -191t-147 -109t-183.5 -36.5q-167 0 -295 104q-41 33 -41 78v6zM289 188q77 -69 200 -69q135 0 214 114t79 322 q0 150 -45 228.5t-131 78.5q-143 0 -284 -307z" />
<glyph unicode="c" horiz-adv-x="878" d="M143 432q0 123 27 223t71.5 164.5t104 108t122 62t128.5 18.5q94 0 143.5 -16.5t91.5 -49.5q35 -19 35 -66v-8q0 -15 -13.5 -36.5t-33.5 -38.5q-47 26 -70.5 36.5t-65 18.5t-99.5 8q-57 0 -106.5 -22t-91 -68t-65.5 -127t-24 -188q0 -151 65.5 -235.5t176.5 -84.5 q150 0 247 76q31 -17 31 -64q0 -59 -69 -102q-93 -61 -232 -61q-175 0 -274 120.5t-99 331.5z" />
<glyph unicode="d" horiz-adv-x="1079" d="M143 389q0 121 26 224t69 174.5t99.5 122t117.5 74.5t123 24q145 0 231 -117l43 481q3 62 68 62q55 0 84 -21l-107 -1220q-1 -8 -1 -16q0 -54 52 -54h64q8 -16 8 -43q0 -37 -30.5 -58.5t-92.5 -21.5q-72 0 -115 45q-36 37 -36 101q0 13 2 28l6 74q-131 -268 -324 -268 q-55 0 -105 24.5t-91.5 72.5t-66 128.5t-24.5 183.5zM297 408q0 -138 50 -210.5t140 -72.5q162 0 285 338l23 262q-65 133 -209 133q-50 0 -99.5 -27.5t-92.5 -80.5t-70 -142t-27 -200z" />
<glyph unicode="e" horiz-adv-x="962" d="M139 432q0 139 40 251t107 181.5t150.5 106.5t173.5 37q145 0 222 -77t77 -188q0 -153 -154.5 -253t-457.5 -140q19 -109 82 -167t158 -58q93 0 175.5 26t123.5 58q28 -16 28 -59q0 -52 -37 -82q-120 -88 -315 -88q-174 0 -273.5 122.5t-99.5 329.5zM291 459 q253 37 364 105t111 167q0 61 -39.5 100t-132.5 39q-55 0 -107 -27t-95.5 -76.5t-71 -130t-29.5 -177.5z" />
<glyph unicode="f" horiz-adv-x="663" d="M152 899q0 88 81 88h60l16 187q12 147 80 209.5t195 62.5q101 0 140.5 -20t39.5 -56q0 -49 -25 -78h-139q-64 0 -96 -30t-39 -109l-14 -166h229q10 -17 10 -45q0 -35 -18 -62.5t-60 -27.5h-174l-69 -799q-5 -53 -95 -53q-49 0 -67 18l74 834h-119q-10 15 -10 47z" />
<glyph unicode="g" horiz-adv-x="1030" d="M86 -258q0 50 39 78q34 -27 63 -45t87.5 -36t125.5 -18q314 0 340 271q3 29 13 272q-126 -276 -324 -276q-55 0 -104.5 23.5t-91.5 69.5t-66.5 125.5t-24.5 182.5q0 121 26 224t69 174.5t100 122t119 74.5t125 24q137 0 225 -136l8 74q6 62 68 62q50 0 84 -21l-54 -543 q-6 -62 -12.5 -215.5t-13.5 -226.5q-10 -110 -52.5 -191.5t-109 -127.5t-143.5 -67.5t-168 -21.5q-155 0 -241.5 44t-86.5 104zM297 408q0 -137 49 -205t139 -68q85 1 156.5 83.5t124.5 225.5l27 269q-38 79 -85.5 116t-119.5 37q-50 0 -100 -29t-93.5 -83.5t-70.5 -144.5 t-27 -201z" />
<glyph unicode="h" horiz-adv-x="1026" d="M125 76l119 1339q30 19 82 19q35 0 53.5 -16t15.5 -50l-59 -670q76 149 173 229.5t206 80.5q98 0 154.5 -57.5t56.5 -178.5q0 -3 -6 -102l-43 -498q-1 -8 -1 -15q0 -40 31 -40h68q4 -16 4 -29q0 -88 -152 -88q-65 0 -91 34q-21 28 -20 82q0 13 1 27l41 488q6 44 6 90 q0 125 -123 125q-92 0 -174.5 -87t-147.5 -251l-43 -492q-22 -16 -83 -16q-69 0 -69 64q0 6 1 12z" />
<glyph unicode="i" horiz-adv-x="563" d="M168 885q0 104 139 104q70 1 102 -35q26 -29 26 -97q0 -15 -1 -32l-57 -643v-7q0 -46 41 -46h57q8 -16 8 -39q0 -90 -143 -90q-66 0 -96 33q-24 27 -24 81q0 13 1 27l55 641v10q0 48 -43 48h-57q-8 20 -8 45zM276 1257q0 113 109 113q92 0 92 -88q0 -115 -110 -115 q-91 0 -91 90z" />
<glyph unicode="j" horiz-adv-x="544" d="M-59 -268q0 27 16 67h137q117 0 129 142l74 841q1 6 1 11q0 47 -40 47h-78q-6 36 -6 47q0 102 152 102q76 0 106 -37q23 -28 23 -86q0 -17 -2 -37l-80 -921q-22 -258 -252 -258q-180 0 -180 82zM301 1257q0 113 109 113q92 0 92 -88q0 -115 -109 -115q-92 0 -92 90z" />
<glyph unicode="k" horiz-adv-x="880" d="M129 76l119 1337q28 21 76 21q35 0 58.5 -15.5t20.5 -48.5l-71 -805q137 59 225 177.5t105 230.5q32 16 67 16q74 0 74 -61q0 -98 -107 -226.5t-229 -179.5q31 -21 64 -68.5t60 -97t57 -97t66.5 -77.5t76.5 -30h67q8 -11 8 -43q0 -49 -32.5 -79t-92.5 -30 q-59 0 -109 37.5t-88 97t-71 121.5t-72 122.5t-77 88.5l-39 -447q-27 -20 -90 -20q-34 0 -52 16q-15 13 -15 45q0 7 1 15z" />
<glyph unicode="l" horiz-adv-x="575" d="M156 252l102 1159q30 23 76 23q75 -3 75 -60q0 -5 -1 -10l-93 -1059q-2 -22 -2 -41q0 -54 19 -79q26 -33 96 -33h133q4 -16 4 -39q0 -52 -51 -82.5t-152 -30.5q-121 0 -169 60q-39 48 -39 145q0 22 2 47z" />
<glyph unicode="m" horiz-adv-x="1701" d="M150 893q0 96 153 96q71 0 107 -41q31 -35 31 -101q0 -11 -1 -22l-12 -129q75 151 168.5 231.5t200.5 80.5q99 0 155 -57.5t56 -178.5q0 -28 -4 -86q155 322 376 322q98 0 154.5 -57.5t56.5 -178.5q0 -36 -4 -102l-45 -498v-8q0 -47 33 -47h74q6 -24 6 -29 q0 -88 -154 -88q-120 0 -120 120q0 11 1 23l43 488q5 72 5 90q0 125 -123 125q-189 0 -324 -389l-25 -285v-8q0 -47 33 -47h74q6 -12 6 -29q0 -88 -153 -88q-120 0 -120 120q0 11 1 23l43 488q4 29 4 90q0 67 -31.5 96t-91.5 29q-180 0 -313 -369l-41 -459q-27 -18 -90 -18 q-71 0 -71 69q0 6 1 13l61 700q1 7 1 12q0 48 -44 48h-69q-8 21 -8 51z" />
<glyph unicode="n" horiz-adv-x="1138" d="M150 891q0 45 39 70.5t112 25.5q71 0 107 -42q31 -36 30 -100v-22l-14 -143q77 158 178.5 243t216.5 85q98 0 154.5 -57.5t56.5 -178.5q0 -3 -6 -102l-43 -498q-1 -8 -1 -14q0 -41 32 -41h75q5 -20 5 -29q0 -88 -152 -88q-120 0 -120 120q0 11 1 23l41 488q6 44 6 90 q0 67 -32 96t-93 29q-97 0 -185 -100.5t-152 -286.5l-39 -441q-30 -18 -91 -18q-35 0 -53 18q-15 14 -15 48q0 8 1 16l61 700v10q0 48 -43 48h-69q-8 21 -8 51z" />
<glyph unicode="o" horiz-adv-x="1024" d="M143 406q0 281 132 441.5t333 160.5q161 0 261 -114t100 -323q0 -148 -35.5 -263t-99 -185.5t-145.5 -106.5t-179 -36q-164 0 -265.5 111.5t-101.5 314.5zM301 418q0 -150 60.5 -224.5t162.5 -74.5q133 0 209 107.5t76 330.5q0 148 -59.5 227.5t-159.5 79.5 q-126 0 -207.5 -118t-81.5 -328z" />
<glyph unicode="p" horiz-adv-x="1087" d="M135 893q0 49 37 71.5t117 22.5q69 0 103 -42q29 -36 29 -97q0 -11 -1 -23l-10 -94q67 132 151 202.5t178 70.5q56 0 105 -21.5t91 -68t66.5 -130.5t24.5 -198q0 -121 -24 -223t-64 -171.5t-93 -118t-110.5 -71t-116.5 -22.5q-176 0 -266 149l-49 -510q-32 -16 -84 -16 q-36 0 -55 17q-17 16 -17 53v12l107 1097q1 7 1 13q0 47 -42 47h-68q-10 27 -10 51zM365 262q88 -131 221 -131q124 0 202 108.5t78 321.5q0 291 -184 291q-83 0 -160 -95t-135 -272z" />
<glyph unicode="q" horiz-adv-x="1073" d="M143 420q0 145 35 259.5t94.5 184t134.5 105t160 35.5q163 0 256 -134q20 56 65 86.5t105 30.5q105 0 105 -67q0 -39 -17 -74h-67q-54 0 -60 -62l-100 -1151q-28 -16 -78 -16q-65 0 -65 56v5l45 527q-56 -106 -133 -165.5t-170 -59.5q-137 0 -223.5 113t-86.5 327z M295 438q0 -149 58.5 -231t144.5 -82q100 0 167.5 78t110.5 229l27 305q-67 111 -236 111q-50 0 -96.5 -24t-86.5 -71t-64.5 -129t-24.5 -186z" />
<glyph unicode="r" horiz-adv-x="823" d="M133 891q0 44 40 70t106 26q75 1 111 -39q29 -32 30 -98q0 -16 -2 -35l-10 -100q68 128 157.5 210.5t173.5 82.5q68 0 106 -37.5t38 -110.5q0 -139 -105 -139q-33 0 -57 24q1 7 1 14q0 77 -73 77q-65 0 -141 -97t-119 -235l-41 -486q-18 -18 -90 -18q-33 0 -51 16 q-15 13 -15 45q0 7 1 15l61 702v7q0 55 -43 55h-72q-6 24 -6 51z" />
<glyph unicode="s" horiz-adv-x="831" d="M98 143q0 30 8 49t31 39q44 -44 114 -76t144 -32q105 0 155 40t50 95q0 52 -38.5 88.5t-143.5 91.5q-122 64 -177 129t-55 164q0 116 90 196.5t238 80.5q126 0 196 -52t70 -108q0 -47 -35 -68q-102 82 -235 82q-88 0 -133 -36.5t-45 -86.5q0 -53 38.5 -93t137.5 -91 q123 -62 178 -126t55 -155q0 -124 -90.5 -209t-261.5 -85q-125 0 -208 53.5t-83 109.5z" />
<glyph unicode="t" horiz-adv-x="706" d="M143 901q0 86 72 86h68l24 268q38 17 84 17q66 0 66 -58v-10l-19 -217h287q12 -16 12 -41q0 -34 -19.5 -64t-66.5 -30h-225l-47 -551q-2 -20 -2 -37q0 -58 19 -84q24 -34 83 -32h185q4 -28 4 -50q0 -47 -55.5 -72.5t-192.5 -25.5q-104 0 -158 58q-43 46 -44 146 q0 24 3 52l51 596h-118q-11 26 -11 49z" />
<glyph unicode="u" horiz-adv-x="1140" d="M135 909q4 39 47.5 59t114.5 19q78 0 110 -33q26 -27 26 -84q0 -12 -1 -26l-45 -508q-2 -24 -2 -46q1 -70 25 -108q32 -50 94 -51q97 0 184.5 101t140.5 260l43 477q30 18 91 18q39 0 55.5 -16t13.5 -47l-61 -729q-1 -6 0 -12q0 -48 39 -48h71q0 -3 1 -14t1 -17 q0 -104 -159 -104q-124 0 -124 132q0 14 1 30l8 100q-71 -124 -170 -201t-199 -77q-115 0 -176 76q-48 60 -48 181q0 32 3 68l43 477v7q0 49 -39 49h-86q-3 28 -3 47q0 11 1 20z" />
<glyph unicode="v" horiz-adv-x="983" d="M104 909q0 35 30.5 56.5t82.5 21.5q115 0 133 -84l180 -715q110 149 196.5 337.5t86.5 279.5q0 55 -53 55h-55q-7 18 -7 45q0 82 129 82q73 0 107.5 -31.5t34.5 -101.5q0 -123 -111 -349.5t-254 -422.5q-34 -44 -59.5 -63t-59.5 -19q-39 0 -57 12l-213 803q-15 47 -49 47 h-55q-7 21 -7 47z" />
<glyph unicode="w" horiz-adv-x="1501" d="M102 903q0 84 140 84q55 0 81 -20t37 -64l144 -706q98 143 181 341.5t83 280.5q0 43 -31 43h-55q-6 12 -6 41q0 41 38 62.5t105 21.5q78 0 96 -76l162 -716q104 138 178 328t74 290q0 22 -12 35.5t-31 13.5h-63q-6 30 -6 43q0 38 39.5 60t103.5 22q127 0 127 -131 q0 -132 -100.5 -360t-221.5 -396q-36 -52 -63 -76t-62 -24t-55 14l-145 631q-47 -140 -118 -288.5t-144 -260.5q-37 -55 -63.5 -75.5t-61.5 -20.5q-38 0 -60 16l-176 809q-6 37 -39 37h-69q-1 4 -3 11.5t-3 15t-1 14.5z" />
<glyph unicode="x" horiz-adv-x="1021" d="M84 90l373 416l-162 323q-19 31 -53 31h-84q-4 20 -4 35q0 44 42.5 68t106.5 24q53 0 83.5 -21.5t53.5 -68.5l138 -279l213 306q14 28 44 45.5t58 17.5q53 0 75 -26q17 -21 18 -49q0 -6 -1 -13l-356 -383l162 -323q35 -66 83 -66h76q6 -30 6 -33q0 -94 -147 -94 q-96 0 -139 84l-160 315l-246 -340q-18 -29 -47 -44t-59 -15q-38 0 -56 26t-18 64z" />
<glyph unicode="y" horiz-adv-x="1042" d="M29 -309q0 43 18 73h150q149 0 256 160l61 101q-38 0 -66.5 25.5t-39.5 68.5l-183 700q-6 23 -16 33t-29 10h-71q-7 35 -7 41q0 40 39 62t105 22q59 0 87.5 -25.5t41.5 -82.5l157 -666q7 -26 21.5 -39.5t30.5 -13.5h8q108 202 189 391.5t81 261.5q0 49 -43 49h-69 q-7 14 -7 43q0 39 40 60.5t96 21.5q147 0 147 -127q0 -90 -88.5 -296.5t-197 -403.5t-189.5 -314q-90 -132 -179.5 -184.5t-201.5 -52.5q-141 0 -141 82z" />
<glyph unicode="z" horiz-adv-x="950" d="M84 51q0 42 29 78l592 717h-506q-11 22 -11 49q0 37 16.5 64.5t57.5 27.5h656q8 -16 8 -41q0 -45 -35 -84l-594 -723h577q9 -22 9 -47q0 -92 -84 -92h-705q-10 23 -10 51z" />
<glyph unicode="{" horiz-adv-x="628" d="M115 598q0 57 20 80q42 -2 75.5 29t37.5 81l39 437q10 125 77 179t160 54q162 0 162 -84q0 -39 -16 -63h-135q-45 0 -74 -31.5t-33 -87.5l-37 -414q-8 -84 -39.5 -122t-62.5 -42v-8q11 -1 24 -10.5t25.5 -28t19 -53.5t2.5 -80l-34 -409q-11 -111 84 -111h139q8 -11 8 -39 q0 -104 -199 -104q-82 0 -136 52.5t-44 158.5l39 444q4 55 -14 78t-51 28q-37 9 -37 66z" />
<glyph unicode="|" horiz-adv-x="518" d="M164 -160l139 1602q29 16 90 16q36 0 54.5 -13t15.5 -44l-141 -1612q-34 -18 -95 -18q-32 0 -49 17.5t-14 51.5z" />
<glyph unicode="}" horiz-adv-x="628" d="M49 -143q0 30 17 61h137q45 0 73.5 30.5t32.5 88.5l37 414q7 84 38.5 121.5t64.5 41.5v9q-12 1 -25 10.5t-26 28t-20 53.5t-3 80l37 409q8 111 -84 111h-142q-6 12 -6 39q0 104 199 104q81 0 134.5 -52t45.5 -159l-39 -444q-10 -97 66 -109q37 -6 37 -63t-21 -78 q-43 0 -76.5 -31.5t-36.5 -79.5l-38 -436q-6 -66 -28.5 -114t-57 -73t-72.5 -36.5t-82 -11.5q-162 0 -162 86z" />
<glyph unicode="~" horiz-adv-x="985" d="M219 1229q0 39 45 78t111 39q57 0 156 -31t145 -31q87 0 125 49q30 -21 30 -65q0 -41 -38 -71t-105 -30q-51 0 -167.5 30t-160.5 30q-34 0 -67 -17.5t-39 -35.5q-35 11 -35 55z" />
<glyph unicode="&#xa1;" horiz-adv-x="407" d="M82 -383l90 1047q26 22 86 22q80 0 72 -88l-90 -1028q-26 -16 -76 -16q-37 0 -61 15t-21 48zM180 881q0 108 103 108q84 0 84 -84q0 -106 -101 -106q-86 0 -86 82z" />
<glyph unicode="&#xa2;" horiz-adv-x="964" d="M152 432q0 142 38 252.5t102.5 176.5t140 101.5t161.5 43.5l14 163q27 15 58 13q28 0 43.5 -14t9.5 -42l-17 -122q72 -5 113.5 -21t81.5 -43q40 -24 37 -72q0 -15 -13.5 -39.5t-33.5 -42.5q-38 21 -61.5 32t-60 20.5t-79.5 11.5l-65 -723q72 4 139 27.5t102 50.5 q21 -21 21 -60q0 -65 -70 -104q-87 -50 -209 -57l-14 -158q-16 -16 -64 -16q-27 2 -39 13.5t-8 43.5l15 119q-161 20 -251.5 138t-90.5 308zM293 446q0 -131 58 -215.5t157 -101.5l70 719q-123 -13 -204 -113t-81 -289z" />
<glyph unicode="&#xa3;" horiz-adv-x="1144" d="M53 59q0 90 60 95q56 5 97 100.5t73 327.5h-160q-12 32 -12 55q0 46 20 72t76 26h96l8 82q11 128 44.5 234.5t91 192.5t148 134.5t206.5 48.5q156 0 246 -42t90 -99q0 -65 -52 -92q-103 84 -290 84q-82 0 -144 -38t-99 -106t-57 -146t-28 -173q-4 -52 -8 -80h432 q12 -16 12 -47q0 -43 -24 -74.5t-88 -31.5h-353q-42 -329 -121 -428h785q12 -30 12 -56q0 -44 -19 -71t-53 -27h-979q-10 30 -10 59z" />
<glyph unicode="&#xa4;" horiz-adv-x="1011" d="M86 90l164 178q-60 83 -60 201t76 225l-69 88q-25 21 -38 49t-9 54q8 52 39 75t65 19l135 -170q86 61 186 61q86 0 156 -51l84 105q19 28 48 46.5t55 18.5q53 0 75 -26.5t17 -63.5l-168 -184q51 -76 51 -187q0 -125 -78 -225l92 -106q50 -50 41 -107q-6 -38 -37 -61 t-69 -25l-144 186q-85 -63 -188 -63q-79 0 -143 45l-91 -113q-50 -59 -106 -59q-38 0 -62 27.5t-22 62.5zM313 481q0 -97 60 -163t149 -66q99 0 173.5 79t74.5 187q0 96 -59 163t-146 67q-99 0 -175.5 -79.5t-76.5 -187.5z" />
<glyph unicode="&#xa5;" horiz-adv-x="1136" d="M197 1409q45 25 84 25q33 0 49.5 -12t23.5 -42q88 -448 277 -796q129 181 257.5 438t166.5 401q25 11 71 11q25 0 40.5 -16.5t13.5 -41.5q-10 -96 -120.5 -315t-240.5 -414l217 2q15 -15 15 -41q0 -36 -30 -63t-93 -27h-197l-29 -41l-8 -76h322q12 -16 12 -41 q0 -88 -113 -88h-231l-22 -254q-29 -18 -91 -18q-36 0 -53 14t-14 45l18 213h-307q-14 28 -14 50q0 38 18.5 58.5t69.5 20.5h243l7 70l-27 47h-276q-13 35 -13 51q0 85 86 80l137 -2q-172 358 -249 762z" />
<glyph unicode="&#xa6;" horiz-adv-x="518" d="M164 -152l59 674q27 17 78 17q37 0 60.5 -15.5t19.5 -48.5l-59 -682q-19 -22 -93 -22q-72 0 -65 77zM246 768l57 674q26 16 78 16q37 0 61 -15t21 -48l-60 -684q-25 -21 -92 -21q-33 0 -51 16.5t-14 61.5z" />
<glyph unicode="&#xa7;" horiz-adv-x="1138" d="M178 94q0 51 47 84q47 -49 133 -83t201 -34q125 0 200 43.5t77 114.5q1 57 -65.5 95t-217.5 75q-96 23 -159.5 47t-115.5 59.5t-76 85t-24 117.5q0 37 10 71.5t34 70t38.5 54.5t49.5 57t40 44q-76 64 -76 158q0 137 116 232.5t327 95.5q155 0 246.5 -53t91.5 -119 q0 -65 -66 -95q-29 46 -107.5 81.5t-191.5 35.5q-141 0 -204.5 -46t-63.5 -116q0 -59 64 -99.5t206 -78.5q185 -48 277 -122t92 -207q0 -79 -38.5 -143.5t-107.5 -135.5q68 -51 68 -154q0 -135 -126 -221t-318 -86q-159 0 -260 55.5t-101 116.5zM319 727q0 -35 13.5 -62.5 t35.5 -48t61 -40t79 -34t102 -32.5q164 -46 213 -72q104 108 107 203q1 83 -73.5 136.5t-235.5 96.5q-93 22 -183 64q-58 -61 -88.5 -109t-30.5 -102z" />
<glyph unicode="&#xa8;" horiz-adv-x="917" d="M252 1239q0 55 24 81t76 26q86 0 86 -84q0 -105 -104 -105q-82 0 -82 82zM651 1239q0 107 103 107q84 0 84 -84q0 -105 -103 -105q-84 0 -84 82z" />
<glyph unicode="&#xa9;" horiz-adv-x="1519" d="M127 641q0 368 209.5 590.5t552.5 222.5q291 0 460 -179t169 -482q0 -181 -55.5 -333t-154.5 -257.5t-240 -164t-308 -58.5q-295 0 -464 178.5t-169 482.5zM264 655q0 -248 135.5 -393t370.5 -145q276 0 444 181.5t168 481.5q0 250 -135.5 394.5t-372.5 144.5 q-275 0 -442.5 -181.5t-167.5 -482.5zM489 674q0 97 22 176.5t58.5 131t85 86.5t99.5 50t104 15q54 0 94 -9t59.5 -19t43.5 -28q27 -17 24 -57q0 -11 -13 -32t-28 -34q-37 21 -55.5 30t-52 15.5t-80.5 6.5q-102 0 -169 -78.5t-67 -243.5q0 -119 53.5 -186.5t143.5 -67.5 q113 0 205 62q22 -18 22 -52q0 -49 -53 -78q-82 -51 -192 -51q-141 0 -222.5 97.5t-81.5 265.5z" />
<glyph unicode="&#xaa;" horiz-adv-x="696" d="M154 956q0 89 24.5 162t64.5 117.5t88.5 68t100.5 23.5q77 0 133 -76l4 33q3 43 52 43q44 0 65 -14l-43 -467q-5 -41 31 -41h39q6 -12 6 -29q0 -59 -88 -59q-51 0 -80 31.5t-25 85.5l2 16q-77 -145 -194 -145q-73 0 -126.5 64t-53.5 187zM272 969q0 -77 29 -117.5 t82 -38.5q95 0 158 176l14 152q-23 43 -49.5 62.5t-67.5 19.5q-63 0 -114.5 -69t-51.5 -185z" />
<glyph unicode="&#xab;" horiz-adv-x="952" d="M117 487q0 50 33 88l315 347q19 8 37 8q28 0 45.5 -20t17.5 -44q0 -35 -28 -63l-285 -309l244 -328q2 -6 2 -27q0 -30 -24 -48.5t-50 -18.5q-34 0 -57 30l-238 330q-12 21 -12 55zM506 487q0 50 33 88l315 347q19 8 37 8q26 0 44.5 -20.5t18.5 -43.5q0 -35 -28 -63 l-285 -309l244 -328q0 -2 1 -11t1 -16q0 -30 -24 -48.5t-50 -18.5q-36 0 -57 30l-238 330q-12 28 -12 55z" />
<glyph unicode="&#xac;" horiz-adv-x="1038" d="M164 684q0 41 18 66.5t54 25.5h714q17 -31 11 -76l-37 -417q-21 -21 -93 -21t-65 78l25 281h-617q-10 27 -10 63z" />
<glyph unicode="&#xad;" horiz-adv-x="874" d="M150 528q0 95 88 95h516q12 -20 12 -56q0 -48 -21.5 -73t-72.5 -25h-510q-12 32 -12 59z" />
<glyph unicode="&#xae;" horiz-adv-x="1118" d="M145 848q0 270 150.5 430t400.5 160q196 0 316.5 -125.5t120.5 -327.5q0 -268 -154 -429t-397 -161q-200 0 -318.5 124.5t-118.5 328.5zM246 854q0 -160 92.5 -259t241.5 -99q211 0 331.5 129.5t120.5 355.5q0 159 -94.5 257.5t-253.5 98.5q-201 0 -319.5 -129.5 t-118.5 -353.5zM436 688l43 486q16 8 49 8h164q64 0 106 -35t42 -109q0 -59 -36 -105.5t-87 -58.5q11 -17 30 -57.5t35 -63t35 -22.5h27q8 -12 8 -26q0 -28 -18.5 -45t-53.5 -17q-41 0 -65 33.5t-46.5 95.5t-41.5 92h-84l-19 -213q-11 -8 -43 -8q-22 0 -34 9t-11 36z M551 942h102q44 0 70.5 24.5t26.5 67.5q0 32 -23 50t-57 18h-105z" />
<glyph unicode="&#xaf;" horiz-adv-x="872" d="M217 1223q0 37 20.5 57t79.5 20h523q12 -12 12 -38q0 -86 -111 -86h-510q-14 33 -14 47z" />
<glyph unicode="&#xb0;" horiz-adv-x="638" d="M160 1139q0 121 84.5 209t199.5 88q101 0 169.5 -75t68.5 -181q0 -119 -86 -206t-201 -87q-101 0 -168 73t-67 179zM264 1147q0 -66 41.5 -111t102.5 -45q69 0 119.5 54.5t50.5 130.5q0 65 -40.5 109t-101.5 44q-69 0 -120.5 -53.5t-51.5 -128.5z" />
<glyph unicode="&#xb1;" horiz-adv-x="999" d="M106 39q0 76 74 76h715q8 -16 8 -52q0 -79 -80 -79h-706q-11 39 -11 55zM156 596q0 44 16.5 72t52.5 28h260l31 330q16 16 78 16q75 0 70 -75l-25 -271h305q10 -17 10 -57q0 -98 -80 -98h-247l-29 -332q-37 -16 -80 -16q-39 0 -55.5 18t-13.5 65l22 265h-305 q-10 27 -10 55z" />
<glyph unicode="&#xb2;" horiz-adv-x="663" d="M98 629q0 65 47 98q163 117 221 166q201 169 201 293q0 62 -38.5 94.5t-108.5 32.5q-64 0 -126 -28t-91 -66q-39 17 -39 61q0 53 75 102.5t195 49.5q129 0 195.5 -58.5t66.5 -161.5q0 -78 -43 -159t-112.5 -149t-136.5 -118.5t-136 -91.5l-2 -4l408 4q6 -12 6 -41 q0 -36 -10.5 -52.5t-38.5 -16.5h-527q-6 36 -6 45z" />
<glyph unicode="&#xb3;" horiz-adv-x="651" d="M104 729q0 61 56 78q44 -121 196 -121q91 0 139 43t48 111q0 54 -35.5 84t-99.5 30h-43q-25 0 -25 41q0 37 12 58q85 0 139 35.5t58 95.5q5 58 -30 91.5t-109 33.5q-64 0 -118 -23.5t-85 -60.5q-37 16 -37 57q0 53 70 101.5t188 48.5q123 0 186.5 -58t63.5 -149 q0 -75 -43 -134.5t-109 -76.5v-4q59 -6 98.5 -52.5t39.5 -121.5q0 -52 -18 -97.5t-54.5 -83.5t-98.5 -60t-143 -22q-67 0 -117.5 15.5t-77 40t-39 50t-12.5 50.5z" />
<glyph unicode="&#xb4;" horiz-adv-x="999" d="M385 1182q23 13 95.5 77t141.5 115t105 51q39 0 58.5 -19t17.5 -50q-39 -21 -115.5 -81.5t-140.5 -105.5t-94 -45q-28 0 -46.5 15.5t-21.5 42.5z" />
<glyph unicode="&#xb5;" horiz-adv-x="1153" d="M133 909q4 38 48 58t116 20q66 0 98 -34t34 -89t-3 -125l-29 -333q-11 -133 16.5 -200t112.5 -67q89 0 176.5 71.5t153.5 178.5l51 580q35 18 90 18q78 0 72 -55l-63 -750q-5 -47 38 -47h76q2 -8 2 -31q0 -57 -39 -79.5t-114 -24.5q-58 0 -90 29.5t-33 85.5l6 131 q-77 -113 -169.5 -186.5t-186.5 -77.5q-97 -3 -144 47l-35 -396q-16 -16 -81 -16q-36 0 -51.5 35t-10.5 94l90 1038q6 58 -41 58h-88q-7 29 -2 67z" />
<glyph unicode="&#xb6;" horiz-adv-x="1331" d="M180 926q0 136 65.5 253t179.5 186t247 69h678q12 -20 12 -56q0 -44 -19 -71t-53 -27h-121l-137 -1573q-22 -16 -71 -16q-40 0 -61.5 16t-18.5 62l133 1511h-201l-115 -1319q-10 -104 -69.5 -151.5t-139.5 -47.5q-35 0 -56.5 24.5t-18.5 61.5q56 12 90.5 42t40.5 90 l45 512q-174 0 -292 125.5t-118 308.5z" />
<glyph unicode="&#xb7;" horiz-adv-x="337" d="M123 524q0 109 102 109q84 0 84 -82q0 -107 -102 -107q-84 0 -84 80z" />
<glyph unicode="&#xb8;" horiz-adv-x="1064" d="M334 -340q0 46 47 66q13 -23 45 -40.5t68 -17.5q45 0 70.5 24t25.5 66t-38 62t-89 22q-11 11 -8 45l14 144l109 -2l-19 -111q131 -18 131 -151q0 -93 -53.5 -146t-144.5 -53q-76 0 -117 28t-41 64z" />
<glyph unicode="&#xb9;" horiz-adv-x="624" d="M137 627q0 33 15.5 51t60.5 18h133l53 568q-86 -62 -172 -62q-47 0 -47 49q0 31 17 56q72 6 133.5 38t83.5 80q26 11 63 11q29 0 43.5 -11.5t11.5 -35.5l-63 -693h170q10 -20 10 -41q0 -32 -13.5 -51.5t-37.5 -19.5h-451q-10 23 -10 43z" />
<glyph unicode="&#xba;" horiz-adv-x="688" d="M154 971q0 173 87.5 264.5t223.5 91.5q111 0 179.5 -69t68.5 -201q0 -178 -86 -265t-224 -87q-112 0 -180.5 68t-68.5 198zM283 977q0 -85 36 -125.5t97 -40.5q77 0 121.5 57.5t44.5 180.5q0 85 -34.5 128.5t-94.5 43.5q-73 0 -121.5 -64.5t-48.5 -179.5z" />
<glyph unicode="&#xbb;" horiz-adv-x="952" d="M86 133q0 31 29 60l276 309l-235 329q-2 6 -2 25q0 32 23.5 53t49.5 21q34 0 58 -31l235 -328q15 -26 15 -55q0 -52 -33 -90l-318 -346q-16 -8 -34 -8q-28 0 -46 18.5t-18 42.5zM475 133q0 31 29 60l276 309l-233 329q-6 18 -6 25q0 31 24.5 52.5t50.5 21.5q34 0 58 -31 l237 -328q13 -30 13 -55q0 -55 -35 -90l-314 -346q-16 -8 -36 -8q-28 0 -46 18.5t-18 42.5z" />
<glyph unicode="&#xbc;" horiz-adv-x="1658" d="M137 627q0 33 15.5 51t60.5 18h133l53 568q-86 -62 -172 -62q-47 0 -47 49q0 31 17 56q72 6 133.5 38t83.5 80q26 11 63 11q29 0 43.5 -11.5t11.5 -35.5l-63 -693h170q10 -20 10 -41q0 -32 -13.5 -51.5t-37.5 -19.5h-451q-10 23 -10 43zM492 80l585 1343q27 11 64 11 t51.5 -17t1.5 -49l-600 -1360q-28 -12 -64 -12q-79 0 -38 84zM1001 203q0 27 17 61l227 574q20 10 70 10q23 0 33 -14t2 -35l-207 -527h260l27 312q28 16 63 16q28 0 41 -10.5t10 -34.5l-26 -283h116q6 -9 6 -39q0 -63 -45 -63h-86l-14 -160q-20 -10 -65 -10q-23 0 -36 11 t-10 34l11 125h-387q-7 12 -7 33z" />
<glyph unicode="&#xbd;" horiz-adv-x="1607" d="M137 627q0 33 15.5 51t60.5 18h133l53 568q-86 -62 -172 -62q-47 0 -47 49q0 31 17 56q72 6 133.5 38t83.5 80q26 11 63 11q29 0 43.5 -11.5t11.5 -35.5l-63 -693h170q10 -20 10 -41q0 -32 -13.5 -51.5t-37.5 -19.5h-451q-10 23 -10 43zM492 80l585 1343q27 11 64 11 t51.5 -17t1.5 -49l-600 -1360q-28 -12 -64 -12q-79 0 -38 84zM989 45q0 65 47 98q163 117 221 166q201 169 201 293q0 62 -38.5 94.5t-108.5 32.5q-64 0 -126 -28t-91 -66q-39 17 -39 61q0 53 75 102.5t195 49.5q129 0 195.5 -58.5t66.5 -160.5q0 -78 -43 -159t-112.5 -149 t-136.5 -118.5t-136 -91.5l-2 -5l408 5q6 -12 6 -41q0 -36 -10.5 -53t-38.5 -17h-527q-6 36 -6 45z" />
<glyph unicode="&#xbe;" horiz-adv-x="1685" d="M104 729q0 61 56 78q44 -121 196 -121q91 0 139 43t48 111q0 54 -35.5 84t-99.5 30h-43q-25 0 -25 41q0 37 12 58q85 0 139 35.5t58 95.5q5 58 -30 91.5t-109 33.5q-64 0 -118 -23.5t-85 -60.5q-37 16 -37 57q0 53 70 101.5t188 48.5q123 0 186.5 -58t63.5 -149 q0 -75 -43 -134.5t-109 -76.5v-4q59 -6 98.5 -52.5t39.5 -121.5q0 -52 -18 -97.5t-54.5 -83.5t-98.5 -60t-143 -22q-67 0 -117.5 15.5t-77 40t-39 50t-12.5 50.5zM518 80l586 1343q28 11 63 11q38 0 52.5 -17t1.5 -49l-600 -1360q-28 -12 -64 -12q-80 0 -39 84zM1028 203 q0 29 16 61l228 574q20 10 69 10q23 0 33 -14t2 -35l-207 -527h261l26 312q28 16 64 16q28 0 41 -10.5t10 -34.5l-27 -283h117q6 -9 6 -39q0 -63 -45 -63h-86l-14 -160q-20 -10 -66 -10q-50 0 -45 45l10 125h-387q-6 10 -6 33z" />
<glyph unicode="&#xbf;" horiz-adv-x="948" d="M59 -53q0 205 116 325.5t308 141.5l13 268q23 20 79 20q30 0 46 -16.5t14 -46.5l-14 -264q-3 -44 -23 -64q-68 -2 -131.5 -21.5t-120 -56t-91 -100t-34.5 -145.5q0 -128 68 -190t184 -62q108 0 197.5 47t128.5 115q53 -19 53 -82q0 -36 -25.5 -76.5t-72.5 -77.5 t-126.5 -61.5t-176.5 -24.5q-184 0 -288 98.5t-104 272.5zM481 881q0 108 103 108q84 0 84 -84q0 -106 -101 -106q-86 0 -86 82z" />
<glyph unicode="&#xc0;" horiz-adv-x="1232" d="M37 23l610 1384q20 11 27.5 14.5t28 8t45.5 4.5q64 0 81 -62l373 -1335q-19 -37 -84 -37q-70 0 -86 63l-78 283h-616l-129 -295q-12 -28 -34 -39.5t-62 -11.5q-56 0 -76 23zM399 483h519l-199 727zM549 1757q7 70 84 70q35 0 91.5 -48t114.5 -108t79 -74q-19 -59 -74 -59 q-30 0 -82.5 41.5t-115 99t-97.5 78.5z" />
<glyph unicode="&#xc1;" horiz-adv-x="1232" d="M37 23l610 1384q20 11 27.5 14.5t28 8t45.5 4.5q64 0 81 -62l373 -1335q-19 -37 -84 -37q-70 0 -86 63l-78 283h-616l-129 -295q-12 -28 -34 -39.5t-62 -11.5q-56 0 -76 23zM399 483h519l-199 727zM582 1593q24 13 96 77t141 115.5t105 51.5q39 0 58 -19.5t17 -50.5 q-39 -21 -115.5 -81.5t-140.5 -105t-94 -44.5q-28 0 -46 15t-21 42z" />
<glyph unicode="&#xc2;" horiz-adv-x="1232" d="M37 23l610 1384q20 11 27.5 14.5t28 8t45.5 4.5q64 0 81 -62l373 -1335q-19 -37 -84 -37q-70 0 -86 63l-78 283h-616l-129 -295q-12 -28 -34 -39.5t-62 -11.5q-56 0 -76 23zM399 483h519l-199 727zM438 1595q24 13 91.5 73t132.5 108.5t102 48.5q29 0 72 -30.5 t79.5 -68.5t78 -78t63.5 -53q-12 -46 -53 -55q-18 -4 -35 2q-25 6 -59.5 32t-81 67.5t-70.5 60.5q-27 -18 -81.5 -60.5t-93.5 -68t-65 -31.5q-19 -6 -37 -2q-37 9 -43 55z" />
<glyph unicode="&#xc3;" horiz-adv-x="1232" d="M37 23l610 1384q20 11 27.5 14.5t28 8t45.5 4.5q64 0 81 -62l373 -1335q-19 -37 -84 -37q-70 0 -86 63l-78 283h-616l-129 -295q-12 -28 -34 -39.5t-62 -11.5q-56 0 -76 23zM399 483h519l-199 727zM444 1640q0 39 52 85.5t118 46.5q56 0 145 -44.5t134 -44.5q85 0 133 62 q31 -22 31 -66q0 -41 -46 -77.5t-112 -36.5q-51 0 -153 44t-146 44q-33 0 -73.5 -24.5t-47.5 -43.5q-35 11 -35 55z" />
<glyph unicode="&#xc4;" horiz-adv-x="1232" d="M37 23l610 1384q20 11 27.5 14.5t28 8t45.5 4.5q64 0 81 -62l373 -1335q-19 -37 -84 -37q-70 0 -86 63l-78 283h-616l-129 -295q-12 -28 -34 -39.5t-62 -11.5q-56 0 -76 23zM399 483h519l-199 727zM465 1651q0 54 24 80t76 26q86 0 86 -84q0 -104 -104 -104q-82 0 -82 82 zM864 1651q0 106 103 106q84 0 84 -84q0 -104 -103 -104q-84 0 -84 82z" />
<glyph unicode="&#xc5;" horiz-adv-x="1232" d="M37 23l610 1384q20 11 27.5 14.5t28 8t45.5 4.5q64 0 81 -62l373 -1335q-19 -37 -84 -37q-70 0 -86 63l-78 283h-616l-129 -295q-12 -28 -34 -39.5t-62 -11.5q-56 0 -76 23zM399 483h519l-199 727zM590 1698q0 205 186 205q77 0 116.5 -41.5t39.5 -118.5 q0 -97 -47.5 -149t-139.5 -52q-155 0 -155 156zM672 1708q0 -39 20.5 -61.5t59.5 -22.5q46 0 72 29t26 80q0 39 -21 62.5t-59 23.5q-98 0 -98 -111z" />
<glyph unicode="&#xc6;" horiz-adv-x="1851" d="M37 23l610 1384q20 11 27.5 14.5t28 8t45.5 4.5h1114q12 -20 12 -52q0 -47 -18.5 -74.5t-53.5 -27.5h-698l-41 -469h631q12 -16 12 -55q0 -97 -68 -97h-587l-45 -505h743q12 -12 12 -52q0 -47 -18.5 -74.5t-52.5 -27.5h-772h-15q-33 0 -51 15.5t-14 60.5l28 338h-499 l-158 -363q-12 -28 -34 -39.5t-62 -11.5q-56 0 -76 23zM426 553h453l65 727h-201z" />
<glyph unicode="&#xc7;" horiz-adv-x="1224" d="M174 586q0 208 47 374t131.5 273.5t199.5 164t253 56.5q108 0 188.5 -24t125.5 -58.5t83 -85.5q37 -37 37 -80q0 -32 -18.5 -55t-44.5 -29q-59 89 -150 133.5t-227 44.5q-204 0 -333.5 -184t-129.5 -516q0 -242 98.5 -356.5t272.5 -114.5q250 0 405 172q24 2 44 -13 t20 -46q0 -58 -62 -103q-152 -145 -381 -157l-8 -60q133 -18 133 -151q0 -93 -54 -146t-147 -53q-74 0 -115.5 28t-41.5 64q0 42 47 66q13 -23 44.5 -40.5t67.5 -17.5q45 0 71 24t26 66t-37.5 62t-87.5 22q-13 10 -10 45l8 93q-211 18 -333 171t-122 431z" />
<glyph unicode="&#xc8;" horiz-adv-x="1216" d="M203 76l116 1341q27 17 78 17h13h817q12 -20 12 -52q0 -46 -19.5 -74t-54.5 -28h-696l-41 -469h631q12 -16 12 -55q0 -46 -18 -71.5t-52 -25.5h-587l-45 -505h745q12 -16 12 -52q0 -47 -18.5 -74.5t-52.5 -27.5h-772h-15q-33 0 -51 15.5t-14 60.5zM598 1792q7 70 84 70 q35 0 91.5 -48t114.5 -108t79 -74q-19 -59 -74 -59q-30 0 -82.5 41.5t-115 99t-97.5 78.5z" />
<glyph unicode="&#xc9;" horiz-adv-x="1216" d="M203 76l116 1341q27 17 78 17h13h817q12 -20 12 -52q0 -46 -19.5 -74t-54.5 -28h-696l-41 -469h631q12 -16 12 -55q0 -46 -18 -71.5t-52 -25.5h-587l-45 -505h745q12 -16 12 -52q0 -47 -18.5 -74.5t-52.5 -27.5h-772h-15q-33 0 -51 15.5t-14 60.5zM631 1628q24 13 96 77 t141 115.5t105 51.5q39 0 58.5 -19.5t17.5 -50.5q-39 -21 -116 -81.5t-141 -105t-94 -44.5q-28 0 -46 15t-21 42z" />
<glyph unicode="&#xca;" horiz-adv-x="1216" d="M203 76l116 1341q27 17 78 17h13h817q12 -20 12 -52q0 -46 -19.5 -74t-54.5 -28h-696l-41 -469h631q12 -16 12 -55q0 -46 -18 -71.5t-52 -25.5h-587l-45 -505h745q12 -16 12 -52q0 -47 -18.5 -74.5t-52.5 -27.5h-772h-15q-33 0 -51 15.5t-14 60.5zM487 1630 q24 13 91.5 73t132.5 108.5t102 48.5q29 0 72 -30.5t79.5 -68.5t78 -78t63.5 -53q-12 -46 -53 -55q-18 -4 -35 2q-25 6 -59.5 32t-81 67.5t-70.5 60.5q-27 -18 -81.5 -60.5t-93.5 -68t-65 -31.5q-19 -6 -37 -2q-37 9 -43 55z" />
<glyph unicode="&#xcb;" horiz-adv-x="1216" d="M203 76l116 1341q27 17 78 17h13h817q12 -20 12 -52q0 -46 -19.5 -74t-54.5 -28h-696l-41 -469h631q12 -16 12 -55q0 -46 -18 -71.5t-52 -25.5h-587l-45 -505h745q12 -16 12 -52q0 -47 -18.5 -74.5t-52.5 -27.5h-772h-15q-33 0 -51 15.5t-14 60.5zM514 1686q0 54 24 80 t76 26q86 0 86 -84q0 -104 -104 -104q-82 0 -82 82zM913 1686q0 106 103 106q84 0 84 -84q0 -104 -103 -104q-84 0 -84 82z" />
<glyph unicode="&#xcc;" horiz-adv-x="555" d="M203 78l116 1339q31 17 89 17q35 0 53.5 -15.5t15.5 -50.5l-119 -1348q-38 -20 -88 -20q-75 0 -67 78zM217 1792q7 70 84 70q35 0 91.5 -48t114.5 -108t79 -74q-19 -59 -74 -59q-30 0 -82.5 41.5t-115 99t-97.5 78.5z" />
<glyph unicode="&#xcd;" horiz-adv-x="555" d="M203 78l116 1339q31 17 89 17q35 0 53.5 -15.5t15.5 -50.5l-119 -1348q-38 -20 -88 -20q-75 0 -67 78zM252 1628q24 13 96 77t141 115.5t105 51.5q39 0 58.5 -19.5t17.5 -50.5q-39 -21 -116 -81.5t-141 -105t-94 -44.5q-28 0 -46 15t-21 42z" />
<glyph unicode="&#xce;" horiz-adv-x="555" d="M106 1630q24 13 91.5 73t132.5 108.5t102 48.5q29 0 72 -30.5t79.5 -68.5t78 -78t63.5 -53q-12 -46 -53 -55q-18 -4 -35 2q-25 6 -59.5 32t-81 67.5t-70.5 60.5q-27 -18 -81.5 -60.5t-93.5 -68t-65 -31.5q-19 -5 -36 -2q-38 9 -44 55zM203 78l116 1339q31 17 89 17 q35 0 53.5 -15.5t15.5 -50.5l-119 -1348q-38 -20 -88 -20q-75 0 -67 78z" />
<glyph unicode="&#xcf;" horiz-adv-x="555" d="M133 1686q0 54 24 80t76 26q86 0 86 -84q0 -104 -104 -104q-82 0 -82 82zM203 78l116 1339q31 17 89 17q35 0 53.5 -15.5t15.5 -50.5l-119 -1348q-38 -20 -88 -20q-75 0 -67 78zM532 1686q0 106 103 106q84 0 84 -84q0 -104 -103 -104q-84 0 -84 82z" />
<glyph unicode="&#xd0;" horiz-adv-x="1333" d="M82 707q0 88 72 88h110l55 622q27 17 82 17h263q310 0 464 -140.5t154 -441.5q0 -434 -186 -643t-529 -209h-276h-15q-38 0 -57.5 15.5t-15.5 60.5l49 571h-158q-12 36 -12 60zM371 145h198q278 0 414.5 169t136.5 528q0 227 -115.5 333.5t-355.5 106.5h-180l-43 -487 h295q12 -15 12 -56q0 -47 -21 -69.5t-73 -22.5h-225z" />
<glyph unicode="&#xd1;" horiz-adv-x="1409" d="M203 76l116 1341q34 17 89 17q49 0 69 -41l604 -1084l95 1104q32 21 81 21q34 0 57.5 -16t20.5 -48l-118 -1356q-25 -14 -84 -14q-53 0 -74 43l-606 1063l-93 -1088q-22 -18 -94 -18q-32 0 -49.5 15t-13.5 61zM539 1675q0 39 52 85t118 46q56 0 144.5 -44t133.5 -44 q85 0 133 62q31 -22 31 -66q0 -41 -46.5 -78t-111.5 -37q-51 0 -153 44.5t-146 44.5q-33 0 -73.5 -24.5t-47.5 -43.5q-34 11 -34 55z" />
<glyph unicode="&#xd2;" d="M174 594q0 210 49 375.5t136.5 270.5t204.5 159.5t257 54.5q227 0 359.5 -157.5t132.5 -462.5q0 -221 -49 -388t-137.5 -267.5t-203 -149.5t-253.5 -49q-226 0 -361 153.5t-135 460.5zM336 608q0 -247 93.5 -366t248.5 -119q473 0 473 702q0 236 -91.5 361t-246.5 125 q-218 0 -347.5 -182.5t-129.5 -520.5zM637 1792q7 70 84 70q35 0 91.5 -48t114.5 -108t79 -74q-19 -59 -74 -59q-30 0 -82.5 41.5t-115 99t-97.5 78.5z" />
<glyph unicode="&#xd3;" d="M174 594q0 210 49 375.5t136.5 270.5t204.5 159.5t257 54.5q227 0 359.5 -157.5t132.5 -462.5q0 -221 -49 -388t-137.5 -267.5t-203 -149.5t-253.5 -49q-226 0 -361 153.5t-135 460.5zM336 608q0 -247 93.5 -366t248.5 -119q473 0 473 702q0 236 -91.5 361t-246.5 125 q-218 0 -347.5 -182.5t-129.5 -520.5zM672 1628q24 13 96 77t141 115.5t105 51.5q39 0 58.5 -19.5t17.5 -50.5q-39 -21 -116 -81.5t-141 -105t-94 -44.5q-28 0 -46 15t-21 42z" />
<glyph unicode="&#xd4;" d="M174 594q0 210 49 375.5t136.5 270.5t204.5 159.5t257 54.5q227 0 359.5 -157.5t132.5 -462.5q0 -221 -49 -388t-137.5 -267.5t-203 -149.5t-253.5 -49q-226 0 -361 153.5t-135 460.5zM336 608q0 -247 93.5 -366t248.5 -119q473 0 473 702q0 236 -91.5 361t-246.5 125 q-218 0 -347.5 -182.5t-129.5 -520.5zM526 1630q24 13 91.5 73t132.5 108.5t102 48.5q29 0 72 -30.5t79.5 -68.5t78 -78t63.5 -53q-12 -46 -53 -55q-18 -4 -35 2q-25 6 -59.5 32t-81 67.5t-70.5 60.5q-27 -18 -81.5 -60.5t-93.5 -68t-65 -31.5q-19 -6 -37 -2q-37 9 -43 55z " />
<glyph unicode="&#xd5;" d="M174 594q0 210 49 375.5t136.5 270.5t204.5 159.5t257 54.5q227 0 359.5 -157.5t132.5 -462.5q0 -221 -49 -388t-137.5 -267.5t-203 -149.5t-253.5 -49q-226 0 -361 153.5t-135 460.5zM336 608q0 -247 93.5 -366t248.5 -119q473 0 473 702q0 236 -91.5 361t-246.5 125 q-218 0 -347.5 -182.5t-129.5 -520.5zM532 1675q0 39 52 85t118 46q56 0 145 -44t134 -44q85 0 133 62q31 -22 31 -66q0 -41 -46.5 -78t-111.5 -37q-51 0 -153 44.5t-146 44.5q-33 0 -73.5 -24.5t-47.5 -43.5q-35 11 -35 55z" />
<glyph unicode="&#xd6;" d="M174 594q0 210 49 375.5t136.5 270.5t204.5 159.5t257 54.5q227 0 359.5 -157.5t132.5 -462.5q0 -221 -49 -388t-137.5 -267.5t-203 -149.5t-253.5 -49q-226 0 -361 153.5t-135 460.5zM336 608q0 -247 93.5 -366t248.5 -119q473 0 473 702q0 236 -91.5 361t-246.5 125 q-218 0 -347.5 -182.5t-129.5 -520.5zM553 1686q0 54 24 80t76 26q86 0 86 -84q0 -104 -104 -104q-82 0 -82 82zM952 1686q0 106 103 106q84 0 84 -84q0 -104 -103 -104q-84 0 -84 82z" />
<glyph unicode="&#xd7;" horiz-adv-x="909" d="M172.5 275.5q-6.5 16.5 2.5 39.5t38 50l180 182l-194 233q3 25 34 56q70 66 140 -11l137 -170l235 234q23 0 54 -33q59 -64 -21 -141l-168 -168l195 -234q-1 -3 -5 -11t-6.5 -12t-6.5 -11t-10.5 -13.5t-14.5 -13.5q-20 -20 -36.5 -28t-39 -0.5t-47.5 34.5l-145 178 l-238 -233q-40 16 -59 35q-18 21 -24.5 37.5z" />
<glyph unicode="&#xd8;" d="M174 594q0 210 49 375.5t136.5 270.5t204.5 159.5t257 54.5q112 0 199 -37l98 219q23 13 56 13q23 0 33 -12.5t3 -34.5l-104 -234q207 -154 207 -534q0 -221 -49 -388t-137.5 -267.5t-203 -149.5t-253.5 -49q-99 0 -176 26l-113 -254q-20 -14 -64 -14q-46 0 -30 49 l116 262q-229 146 -229 545zM336 608q0 -292 135 -411l485 1079q-65 35 -143 35q-218 0 -347.5 -182.5t-129.5 -520.5zM555 143q56 -20 123 -20q473 0 473 702q0 261 -115 389z" />
<glyph unicode="&#xd9;" horiz-adv-x="1341" d="M227 520l78 897q27 17 82 17q37 0 57 -15t17 -49l-72 -827q-19 -210 49.5 -313t239.5 -103q180 0 269.5 113t109.5 329l76 848q24 17 81 17q37 0 57 -15.5t17 -50.5l-71 -819q-25 -274 -166 -421.5t-394 -147.5q-242 0 -347.5 132.5t-82.5 407.5zM608 1792q7 70 84 70 q35 0 91.5 -48t114.5 -108t79 -74q-19 -59 -74 -59q-30 0 -82.5 41.5t-115 99t-97.5 78.5z" />
<glyph unicode="&#xda;" horiz-adv-x="1341" d="M227 520l78 897q27 17 82 17q37 0 57 -15t17 -49l-72 -827q-19 -210 49.5 -313t239.5 -103q180 0 269.5 113t109.5 329l76 848q24 17 81 17q37 0 57 -15.5t17 -50.5l-71 -819q-25 -274 -166 -421.5t-394 -147.5q-242 0 -347.5 132.5t-82.5 407.5zM643 1628q24 13 96 77 t141 115.5t105 51.5q39 0 58.5 -19.5t17.5 -50.5q-39 -21 -115.5 -81.5t-140.5 -105t-94 -44.5q-28 0 -46.5 15t-21.5 42z" />
<glyph unicode="&#xdb;" horiz-adv-x="1341" d="M227 520l78 897q27 17 82 17q37 0 57 -15t17 -49l-72 -827q-19 -210 49.5 -313t239.5 -103q180 0 269.5 113t109.5 329l76 848q24 17 81 17q37 0 57 -15.5t17 -50.5l-71 -819q-25 -274 -166 -421.5t-394 -147.5q-242 0 -347.5 132.5t-82.5 407.5zM498 1630q24 13 91 73 t132 108.5t102 48.5q29 0 72 -30.5t79.5 -68.5t78 -78t63.5 -53q-12 -46 -53 -55q-18 -4 -35 2q-25 6 -59.5 32t-81 67.5t-70.5 60.5q-28 -19 -82 -60.5t-92.5 -67.5t-64.5 -32q-19 -6 -37 -2q-37 9 -43 55z" />
<glyph unicode="&#xdc;" horiz-adv-x="1341" d="M227 520l78 897q27 17 82 17q37 0 57 -15t17 -49l-72 -827q-19 -210 49.5 -313t239.5 -103q180 0 269.5 113t109.5 329l76 848q24 17 81 17q37 0 57 -15.5t17 -50.5l-71 -819q-25 -274 -166 -421.5t-394 -147.5q-242 0 -347.5 132.5t-82.5 407.5zM524 1686q0 54 24.5 80 t76.5 26q86 0 86 -84q0 -104 -105 -104q-82 0 -82 82zM924 1686q0 106 102 106q84 0 84 -84q0 -104 -102 -104q-84 0 -84 82z" />
<glyph unicode="&#xdd;" horiz-adv-x="1134" d="M190 1409q36 25 86 25q34 0 51.5 -12t24.5 -42q76 -397 283 -786q134 188 260.5 439.5t161.5 389.5q25 11 80 11q24 0 40 -17t13 -41q-11 -118 -176 -415.5t-307 -483.5l-41 -459q-29 -18 -91 -18q-36 0 -53 14t-14 45l37 412q-270 481 -355 938zM559 1628q24 13 96 77 t141 115.5t105 51.5q39 0 58.5 -19.5t17.5 -50.5q-39 -21 -115.5 -81.5t-140.5 -105t-94 -44.5q-28 0 -46.5 15t-21.5 42z" />
<glyph unicode="&#xde;" horiz-adv-x="1193" d="M203 76l116 1343q30 15 82 15q36 0 57.5 -15.5t18.5 -48.5l-18 -209h344q154 0 250 -93.5t96 -274.5q0 -112 -28.5 -200t-75 -143.5t-112 -91.5t-133 -50.5t-143.5 -14.5h-274l-25 -277q-29 -16 -90 -16q-34 0 -51.5 16.5t-13.5 59.5zM395 432h252q168 0 258 80t90 266 q0 122 -60.5 185t-168.5 63h-320z" />
<glyph unicode="&#xdf;" horiz-adv-x="1167" d="M121 18l84 957q11 119 52.5 210t104.5 144t138 79t159 26q142 0 235 -77t93 -222q0 -51 -13.5 -141.5t-25.5 -116.5q-32 4 -82 4q-90 0 -142 -38.5t-52 -99.5q0 -57 45 -98.5t143 -87.5q56 -25 87 -41t66.5 -41.5t53 -52.5t29.5 -66t12 -90q0 -122 -95.5 -204t-275.5 -82 q-111 0 -195.5 42.5t-84.5 94.5q0 31 9 49.5t30 38.5q34 -34 106.5 -58t145.5 -24q112 0 164.5 37t52.5 92q0 33 -6.5 55t-29 42t-49 35t-81.5 42q-68 33 -110.5 59t-83.5 64t-60 87t-19 112q0 105 79 179t224 89q15 51 15 106q0 79 -53.5 120.5t-135.5 41.5 q-264 0 -293 -338l-79 -905q-1 -18 -23.5 -29.5t-52.5 -11.5q-59 0 -86 18z" />
<glyph unicode="&#xe0;" horiz-adv-x="1067" d="M119 389q0 121 25.5 224t69 174.5t100 122t118.5 74.5t125 24q140 0 227 -138l7 76q3 62 65 62q55 0 84 -21l-68 -794q-8 -70 52 -70h63q8 -16 8 -43q0 -37 -30.5 -58.5t-92.5 -21.5q-72 0 -115 45t-34 129l6 78q-128 -272 -323 -272q-55 0 -105 24.5t-91.5 72.5 t-66 128.5t-24.5 183.5zM272 408q0 -138 50.5 -211.5t140.5 -71.5q85 0 158 90.5t127 245.5l22 248q-38 81 -86 119t-121 38q-50 0 -100 -29t-93.5 -83.5t-70.5 -144.5t-27 -201zM432 1346q7 69 84 69q27 0 70 -30.5t79.5 -68.5t76.5 -78t59 -52q-19 -60 -74 -60 q-30 0 -82.5 42t-115 99.5t-97.5 78.5z" />
<glyph unicode="&#xe1;" horiz-adv-x="1067" d="M119 389q0 121 25.5 224t69 174.5t100 122t118.5 74.5t125 24q140 0 227 -138l7 76q3 62 65 62q55 0 84 -21l-68 -794q-8 -70 52 -70h63q8 -16 8 -43q0 -37 -30.5 -58.5t-92.5 -21.5q-72 0 -115 45t-34 129l6 78q-128 -272 -323 -272q-55 0 -105 24.5t-91.5 72.5 t-66 128.5t-24.5 183.5zM272 408q0 -138 50.5 -211.5t140.5 -71.5q85 0 158 90.5t127 245.5l22 248q-38 81 -86 119t-121 38q-50 0 -100 -29t-93.5 -83.5t-70.5 -144.5t-27 -201zM465 1182q23 13 95.5 77t141.5 115t105 51q39 0 58.5 -19t17.5 -50q-39 -21 -116 -81.5 t-141 -105.5t-94 -45q-28 0 -46 15.5t-21 42.5z" />
<glyph unicode="&#xe2;" horiz-adv-x="1067" d="M119 389q0 121 25.5 224t69 174.5t100 122t118.5 74.5t125 24q140 0 227 -138l7 76q3 62 65 62q55 0 84 -21l-68 -794q-8 -70 52 -70h63q8 -16 8 -43q0 -37 -30.5 -58.5t-92.5 -21.5q-72 0 -115 45t-34 129l6 78q-128 -272 -323 -272q-55 0 -105 24.5t-91.5 72.5 t-66 128.5t-24.5 183.5zM272 408q0 -138 50.5 -211.5t140.5 -71.5q85 0 158 90.5t127 245.5l22 248q-38 81 -86 119t-121 38q-50 0 -100 -29t-93.5 -83.5t-70.5 -144.5t-27 -201zM322 1184q21 11 67.5 51t89.5 78t91 69t77 31q37 0 93.5 -47.5t115.5 -107t84 -74.5 q-12 -47 -53 -56q-18 -4 -35 2q-25 6 -59.5 32t-81 67.5t-70.5 60.5q-27 -18 -81.5 -60.5t-93.5 -68t-65 -31.5q-19 -5 -36 -2q-37 9 -43 56z" />
<glyph unicode="&#xe3;" horiz-adv-x="1067" d="M119 389q0 121 25.5 224t69 174.5t100 122t118.5 74.5t125 24q140 0 227 -138l7 76q3 62 65 62q55 0 84 -21l-68 -794q-8 -70 52 -70h63q8 -16 8 -43q0 -37 -30.5 -58.5t-92.5 -21.5q-72 0 -115 45t-34 129l6 78q-128 -272 -323 -272q-55 0 -105 24.5t-91.5 72.5 t-66 128.5t-24.5 183.5zM272 408q0 -138 50.5 -211.5t140.5 -71.5q85 0 158 90.5t127 245.5l22 248q-38 81 -86 119t-121 38q-50 0 -100 -29t-93.5 -83.5t-70.5 -144.5t-27 -201zM328 1229q0 39 52 85t118 46q56 0 144.5 -44t133.5 -44q86 0 133 61q31 -22 31 -65 q0 -41 -46.5 -78t-111.5 -37q-51 0 -153 44t-146 44q-33 0 -73.5 -24t-47.5 -43q-34 11 -34 55z" />
<glyph unicode="&#xe4;" horiz-adv-x="1067" d="M119 389q0 121 25.5 224t69 174.5t100 122t118.5 74.5t125 24q140 0 227 -138l7 76q3 62 65 62q55 0 84 -21l-68 -794q-8 -70 52 -70h63q8 -16 8 -43q0 -37 -30.5 -58.5t-92.5 -21.5q-72 0 -115 45t-34 129l6 78q-128 -272 -323 -272q-55 0 -105 24.5t-91.5 72.5 t-66 128.5t-24.5 183.5zM272 408q0 -138 50.5 -211.5t140.5 -71.5q85 0 158 90.5t127 245.5l22 248q-38 81 -86 119t-121 38q-50 0 -100 -29t-93.5 -83.5t-70.5 -144.5t-27 -201zM348 1239q0 107 101 107q86 0 86 -84q0 -105 -105 -105q-82 0 -82 82zM748 1239 q0 107 102 107q84 0 84 -84q0 -105 -103 -105q-83 0 -83 82z" />
<glyph unicode="&#xe5;" horiz-adv-x="1067" d="M119 389q0 121 25.5 224t69 174.5t100 122t118.5 74.5t125 24q140 0 227 -138l7 76q3 62 65 62q55 0 84 -21l-68 -794q-8 -70 52 -70h63q8 -16 8 -43q0 -37 -30.5 -58.5t-92.5 -21.5q-72 0 -115 45t-34 129l6 78q-128 -272 -323 -272q-55 0 -105 24.5t-91.5 72.5 t-66 128.5t-24.5 183.5zM272 408q0 -138 50.5 -211.5t140.5 -71.5q85 0 158 90.5t127 245.5l22 248q-38 81 -86 119t-121 38q-50 0 -100 -29t-93.5 -83.5t-70.5 -144.5t-27 -201zM473 1286q0 205 186 205q77 0 116.5 -41.5t39.5 -118.5q0 -97 -47 -149t-139 -52 q-156 0 -156 156zM555 1296q0 -39 20.5 -61.5t59.5 -22.5q46 0 72 29t26 80q0 39 -21 62.5t-59 23.5q-98 0 -98 -111z" />
<glyph unicode="&#xe6;" horiz-adv-x="1585" d="M131 389q0 121 25.5 224t69 174.5t100 122t118.5 74.5t125 24q141 0 228 -138l6 76q3 62 65 62q8 0 15.5 -0.5t12.5 -1t11 -2.5t8.5 -2.5t8 -3.5t6.5 -3.5t6 -4.5l6 -3l-12 -139q112 160 301 160q142 0 220.5 -80t78.5 -189q0 -150 -149.5 -244t-462.5 -145 q18 -109 82 -167t159 -58q92 0 174 26t125 58q29 -18 29 -59q0 -53 -39 -82q-115 -88 -315 -88q-135 0 -227 76t-128 212q-64 -135 -155 -211.5t-205 -76.5q-55 0 -105 24.5t-91.5 72.5t-66 128.5t-24.5 183.5zM285 408q0 -138 50 -211.5t140 -71.5q90 0 163.5 100 t123.5 267l20 217q-38 81 -86 119t-121 38q-50 0 -100 -29t-93 -83.5t-70 -144.5t-27 -201zM911 457q259 45 369.5 110t110.5 162q0 59 -41.5 97t-135.5 38q-56 0 -108 -25.5t-95.5 -74.5t-70.5 -128.5t-29 -178.5z" />
<glyph unicode="&#xe7;" horiz-adv-x="878" d="M143 432q0 123 27 223t71.5 164.5t104 108t122 62t128.5 18.5q94 0 143.5 -16.5t91.5 -49.5q38 -20 35 -74q0 -15 -13.5 -36.5t-33.5 -38.5q-47 26 -70.5 36.5t-65 18.5t-99.5 8q-57 0 -106.5 -22t-91 -68t-65.5 -127t-24 -188q0 -151 65.5 -235.5t176.5 -84.5 q150 0 247 76q31 -17 31 -64q0 -59 -69 -102q-76 -49 -191 -59l-10 -66q131 -18 131 -152q0 -94 -53 -147t-146 -53q-76 0 -116.5 28.5t-40.5 65.5q0 46 47 66q13 -23 44.5 -40.5t67.5 -17.5q45 0 71 24t26 66q0 41 -37 60.5t-88 23.5q-15 11 -11 43l9 103 q-145 22 -226.5 139t-81.5 307z" />
<glyph unicode="&#xe8;" horiz-adv-x="962" d="M139 432q0 139 40 251t107 181.5t150.5 106.5t173.5 37q145 0 222 -77t77 -188q0 -153 -154.5 -253t-457.5 -140q19 -109 82 -167t158 -58q93 0 175.5 26t123.5 58q28 -16 28 -59q0 -52 -37 -82q-120 -88 -315 -88q-174 0 -273.5 122.5t-99.5 329.5zM291 459 q253 37 364 105t111 167q0 61 -39.5 100t-132.5 39q-55 0 -107 -27t-95.5 -76.5t-71 -130t-29.5 -177.5zM418 1346q7 69 84 69q27 0 69.5 -30.5t79 -68.5t76.5 -78t59 -52q-19 -60 -73 -60q-30 0 -82.5 42t-115 99.5t-97.5 78.5z" />
<glyph unicode="&#xe9;" horiz-adv-x="962" d="M139 432q0 139 40 251t107 181.5t150.5 106.5t173.5 37q145 0 222 -77t77 -188q0 -153 -154.5 -253t-457.5 -140q19 -109 82 -167t158 -58q93 0 175.5 26t123.5 58q28 -16 28 -59q0 -52 -37 -82q-120 -88 -315 -88q-174 0 -273.5 122.5t-99.5 329.5zM291 459 q253 37 364 105t111 167q0 61 -39.5 100t-132.5 39q-55 0 -107 -27t-95.5 -76.5t-71 -130t-29.5 -177.5zM453 1182q23 13 95.5 77t141.5 115t105 51q39 0 58 -19t17 -50q-39 -21 -115.5 -81.5t-140.5 -105.5t-94 -45q-28 0 -46 15.5t-21 42.5z" />
<glyph unicode="&#xea;" horiz-adv-x="962" d="M139 432q0 139 40 251t107 181.5t150.5 106.5t173.5 37q145 0 222 -77t77 -188q0 -153 -154.5 -253t-457.5 -140q19 -109 82 -167t158 -58q93 0 175.5 26t123.5 58q28 -16 28 -59q0 -52 -37 -82q-120 -88 -315 -88q-174 0 -273.5 122.5t-99.5 329.5zM291 459 q253 37 364 105t111 167q0 61 -39.5 100t-132.5 39q-55 0 -107 -27t-95.5 -76.5t-71 -130t-29.5 -177.5zM307 1184q24 13 91.5 73t132.5 108t102 48t93.5 -47.5t115.5 -107t84 -74.5q-12 -47 -54 -56q-18 -4 -34 2q-25 6 -59.5 32t-81 67.5t-70.5 60.5q-27 -18 -81.5 -60.5 t-93.5 -68t-65 -31.5q-19 -6 -37 -2q-37 9 -43 56z" />
<glyph unicode="&#xeb;" horiz-adv-x="962" d="M139 432q0 139 40 251t107 181.5t150.5 106.5t173.5 37q145 0 222 -77t77 -188q0 -153 -154.5 -253t-457.5 -140q19 -109 82 -167t158 -58q93 0 175.5 26t123.5 58q28 -16 28 -59q0 -52 -37 -82q-120 -88 -315 -88q-174 0 -273.5 122.5t-99.5 329.5zM291 459 q253 37 364 105t111 167q0 61 -39.5 100t-132.5 39q-55 0 -107 -27t-95.5 -76.5t-71 -130t-29.5 -177.5zM334 1239q0 55 24 81t76 26q86 0 86 -84q0 -105 -104 -105q-82 0 -82 82zM733 1239q0 107 103 107q84 0 84 -84q0 -105 -103 -105q-84 0 -84 82z" />
<glyph unicode="&#xec;" horiz-adv-x="563" d="M133 1346q7 69 84 69q27 0 70 -30.5t79.5 -68.5t76.5 -78t59 -52q-19 -60 -74 -60q-30 0 -82.5 42t-115 99.5t-97.5 78.5zM168 885q0 104 139 104q70 0 103 -35.5t26 -128.5l-57 -643q-3 -53 39 -53h59q6 -24 6 -39q0 -90 -143 -90q-66 0 -97 33t-24 108l55 641 q5 58 -43 58h-55q-8 20 -8 45z" />
<glyph unicode="&#xed;" horiz-adv-x="563" d="M166 1182q23 13 95.5 77t141.5 115t105 51q40 0 59 -19t17 -50q-39 -21 -116 -81.5t-141 -105.5t-94 -45q-28 0 -46 15.5t-21 42.5zM168 885q0 104 139 104q70 0 103 -35.5t26 -128.5l-57 -643q-3 -53 39 -53h59q6 -24 6 -39q0 -90 -143 -90q-66 0 -97 33t-24 108l55 641 q5 58 -43 58h-55q-8 20 -8 45z" />
<glyph unicode="&#xee;" horiz-adv-x="563" d="M23 1184q21 11 67.5 51t89.5 78t91 69t77 31q37 0 93.5 -47.5t115.5 -107t84 -74.5q-12 -47 -53 -56q-18 -4 -35 2q-25 6 -59.5 32t-81 67.5t-70.5 60.5q-27 -18 -81.5 -60.5t-93.5 -68t-65 -31.5q-19 -5 -36 -2q-37 9 -43 56zM168 885q0 104 139 104q70 0 103 -35.5 t26 -128.5l-57 -643q-3 -53 39 -53h59q6 -24 6 -39q0 -90 -143 -90q-66 0 -97 33t-24 108l55 641q5 58 -43 58h-55q-8 20 -8 45z" />
<glyph unicode="&#xef;" horiz-adv-x="563" d="M49 1239q0 107 101 107q86 0 86 -84q0 -105 -105 -105q-82 0 -82 82zM168 885q0 104 139 104q70 0 103 -35.5t26 -128.5l-57 -643q-3 -53 39 -53h59q6 -24 6 -39q0 -90 -143 -90q-66 0 -97 33t-24 108l55 641q5 58 -43 58h-55q-8 20 -8 45zM449 1239q0 107 102 107 q84 0 84 -84q0 -105 -103 -105q-83 0 -83 82z" />
<glyph unicode="&#xf0;" horiz-adv-x="1069" d="M143 397q0 268 130.5 409.5t342.5 141.5q125 0 238 -80q-3 136 -41 269l-287 -56q-12 18 -18 49q-9 49 41 60l229 43q-47 112 -108 164q21 78 98 78q42 0 88 -58.5t82 -154.5l195 36q14 -10 20 -45q6 -30 -7.5 -43t-45.5 -18l-131 -25q43 -150 43 -303 q0 -437 -135 -660.5t-369 -223.5q-161 0 -263 107t-102 310zM305 406q0 -148 59.5 -220.5t155.5 -72.5q138 0 223 142t105 421q-106 137 -254 137q-129 0 -209 -106t-80 -301z" />
<glyph unicode="&#xf1;" horiz-adv-x="1138" d="M150 891q0 45 39 70.5t112 25.5q70 0 106.5 -42t30.5 -122l-14 -143q77 158 178.5 243t216.5 85q98 0 154.5 -57.5t56.5 -178.5q0 -3 -6 -102l-43 -498q-6 -55 31 -55h75q5 -20 5 -29q0 -88 -152 -88q-131 0 -119 143l41 488q6 44 6 90q0 67 -32 96t-93 29 q-97 0 -185 -100.5t-152 -286.5l-39 -441q-30 -18 -91 -18q-35 0 -53 17.5t-14 64.5l61 700q5 58 -43 58h-69q-8 21 -8 51zM324 1219q0 39 52 85t118 46q56 0 144.5 -44t133.5 -44q86 0 133 61q31 -22 31 -66q0 -41 -46 -77.5t-112 -36.5q-51 0 -153 44t-146 44 q-33 0 -73.5 -24.5t-47.5 -43.5q-34 11 -34 56z" />
<glyph unicode="&#xf2;" horiz-adv-x="1024" d="M143 406q0 281 132 441.5t333 160.5q161 0 261 -114t100 -323q0 -148 -35.5 -263t-99 -185.5t-145.5 -106.5t-179 -36q-164 0 -265.5 111.5t-101.5 314.5zM301 418q0 -150 60.5 -224.5t162.5 -74.5q133 0 209 107.5t76 330.5q0 148 -59.5 227.5t-159.5 79.5 q-126 0 -207.5 -118t-81.5 -328zM432 1343q7 70 84 70q27 0 70 -30.5t79.5 -68.5t76.5 -78t59 -52q-19 -60 -74 -60q-30 0 -82.5 41.5t-115 99t-97.5 78.5z" />
<glyph unicode="&#xf3;" horiz-adv-x="1024" d="M143 406q0 281 132 441.5t333 160.5q161 0 261 -114t100 -323q0 -148 -35.5 -263t-99 -185.5t-145.5 -106.5t-179 -36q-164 0 -265.5 111.5t-101.5 314.5zM301 418q0 -150 60.5 -224.5t162.5 -74.5q133 0 209 107.5t76 330.5q0 148 -59.5 227.5t-159.5 79.5 q-126 0 -207.5 -118t-81.5 -328zM465 1180q23 13 95.5 77t141.5 115t105 51q39 0 58.5 -19t17.5 -50q-39 -21 -116 -81.5t-141 -105.5t-94 -45q-28 0 -46 15.5t-21 42.5z" />
<glyph unicode="&#xf4;" horiz-adv-x="1024" d="M143 406q0 281 132 441.5t333 160.5q161 0 261 -114t100 -323q0 -148 -35.5 -263t-99 -185.5t-145.5 -106.5t-179 -36q-164 0 -265.5 111.5t-101.5 314.5zM301 418q0 -150 60.5 -224.5t162.5 -74.5q133 0 209 107.5t76 330.5q0 148 -59.5 227.5t-159.5 79.5 q-126 0 -207.5 -118t-81.5 -328zM322 1182q21 11 67.5 51t89.5 78t91 69t77 31q37 0 93.5 -47.5t115.5 -107t84 -74.5q-12 -47 -53 -56q-18 -4 -35 2q-25 6 -59.5 32t-81 67.5t-70.5 60.5q-27 -18 -81.5 -60.5t-93.5 -68t-65 -31.5q-19 -5 -36 -2q-37 9 -43 56z" />
<glyph unicode="&#xf5;" horiz-adv-x="1024" d="M143 406q0 281 132 441.5t333 160.5q161 0 261 -114t100 -323q0 -148 -35.5 -263t-99 -185.5t-145.5 -106.5t-179 -36q-164 0 -265.5 111.5t-101.5 314.5zM301 418q0 -150 60.5 -224.5t162.5 -74.5q133 0 209 107.5t76 330.5q0 148 -59.5 227.5t-159.5 79.5 q-126 0 -207.5 -118t-81.5 -328zM328 1227q0 39 52 85t118 46q56 0 144.5 -44t133.5 -44q86 0 133 61q31 -22 31 -65q0 -41 -46.5 -78t-111.5 -37q-51 0 -153 44t-146 44q-33 0 -73.5 -24.5t-47.5 -43.5q-34 11 -34 56z" />
<glyph unicode="&#xf6;" horiz-adv-x="1024" d="M143 406q0 281 132 441.5t333 160.5q161 0 261 -114t100 -323q0 -148 -35.5 -263t-99 -185.5t-145.5 -106.5t-179 -36q-164 0 -265.5 111.5t-101.5 314.5zM301 418q0 -150 60.5 -224.5t162.5 -74.5q133 0 209 107.5t76 330.5q0 148 -59.5 227.5t-159.5 79.5 q-126 0 -207.5 -118t-81.5 -328zM348 1237q0 54 24.5 80t76.5 26q86 0 86 -83q0 -105 -105 -105q-82 0 -82 82zM748 1237q0 106 102 106q84 0 84 -83q0 -105 -103 -105q-83 0 -83 82z" />
<glyph unicode="&#xf7;" horiz-adv-x="1001" d="M145 506q0 40 19.5 65t56.5 25h715q10 -20 10 -59q0 -95 -82 -95h-706q-13 35 -13 64zM420 113q0 108 102 108q84 0 84 -84q0 -106 -102 -106q-84 0 -84 82zM487 887q0 108 101 108q86 0 86 -84q0 -104 -103 -104q-84 0 -84 80z" />
<glyph unicode="&#xf8;" horiz-adv-x="1058" d="M143 420q0 141 37.5 254.5t103.5 185.5t153 110t188 38q71 0 129 -21l106 236q19 12 49 12q24 0 34 -12t3 -35l-108 -242q77 -52 120 -149.5t43 -233.5q0 -151 -36.5 -265t-102.5 -182.5t-150 -102t-186 -33.5q-59 0 -118 16l-95 -213q-24 -14 -55 -14q-49 0 -33 49 l97 213q-85 51 -132 149t-47 240zM307 426q0 -170 82 -246l301 666q-35 14 -82 14q-129 0 -215 -115.5t-86 -318.5zM471 133q27 -8 70 -8q136 0 214.5 104.5t78.5 321.5q0 156 -68 237z" />
<glyph unicode="&#xf9;" horiz-adv-x="1140" d="M135 909q4 39 47.5 58.5t114.5 19.5q78 0 110 -33t25 -110l-45 -508q-10 -104 22.5 -154.5t94.5 -50.5q97 0 184.5 101t140.5 260l43 477q30 18 91 18q39 0 55.5 -16t13.5 -47l-61 -729q-5 -60 39 -60h71q0 -3 1 -14t1 -17q0 -104 -159 -104q-138 0 -123 162l8 100 q-71 -124 -170 -201t-199 -77q-115 0 -176 76t-45 249l43 477q3 56 -39 56h-86q-5 44 -2 67zM455 1337q7 70 84 70q27 0 69.5 -30.5t79 -68.5t76.5 -78t59 -52q-19 -60 -73 -60q-30 0 -82.5 41.5t-115 99t-97.5 78.5z" />
<glyph unicode="&#xfa;" horiz-adv-x="1140" d="M135 909q4 39 47.5 58.5t114.5 19.5q78 0 110 -33t25 -110l-45 -508q-10 -104 22.5 -154.5t94.5 -50.5q97 0 184.5 101t140.5 260l43 477q30 18 91 18q39 0 55.5 -16t13.5 -47l-61 -729q-5 -60 39 -60h71q0 -3 1 -14t1 -17q0 -104 -159 -104q-138 0 -123 162l8 100 q-71 -124 -170 -201t-199 -77q-115 0 -176 76t-45 249l43 477q3 56 -39 56h-86q-5 44 -2 67zM487 1174q23 13 95.5 77t141.5 115t105 51q39 0 58.5 -19t17.5 -50q-39 -21 -115.5 -81.5t-140.5 -105.5t-94 -45q-28 0 -46.5 15.5t-21.5 42.5z" />
<glyph unicode="&#xfb;" horiz-adv-x="1140" d="M135 909q4 39 47.5 58.5t114.5 19.5q78 0 110 -33t25 -110l-45 -508q-10 -104 22.5 -154.5t94.5 -50.5q97 0 184.5 101t140.5 260l43 477q30 18 91 18q39 0 55.5 -16t13.5 -47l-61 -729q-5 -60 39 -60h71q0 -3 1 -14t1 -17q0 -104 -159 -104q-138 0 -123 162l8 100 q-71 -124 -170 -201t-199 -77q-115 0 -176 76t-45 249l43 477q3 56 -39 56h-86q-5 44 -2 67zM344 1176q24 13 91.5 73t132.5 108t102 48t93.5 -47.5t115.5 -107t84 -74.5q-12 -47 -54 -56q-18 -4 -35 2q-25 6 -59 32t-80 67.5t-71 60.5q-27 -18 -81.5 -60.5t-93.5 -68 t-65 -31.5q-19 -6 -37 -2q-37 9 -43 56z" />
<glyph unicode="&#xfc;" horiz-adv-x="1140" d="M135 909q4 39 47.5 58.5t114.5 19.5q78 0 110 -33t25 -110l-45 -508q-10 -104 22.5 -154.5t94.5 -50.5q97 0 184.5 101t140.5 260l43 477q30 18 91 18q39 0 55.5 -16t13.5 -47l-61 -729q-5 -60 39 -60h71q0 -3 1 -14t1 -17q0 -104 -159 -104q-138 0 -123 162l8 100 q-71 -124 -170 -201t-199 -77q-115 0 -176 76t-45 249l43 477q3 56 -39 56h-86q-5 44 -2 67zM371 1231q0 54 24 80t76 26q86 0 86 -84q0 -104 -104 -104q-82 0 -82 82zM770 1231q0 106 102 106q84 0 84 -84q0 -104 -102 -104q-84 0 -84 82z" />
<glyph unicode="&#xfd;" horiz-adv-x="1042" d="M29 -309q0 43 18 73h150q149 0 256 160l61 101q-38 0 -66.5 25.5t-39.5 68.5l-183 700q-6 23 -16 33t-29 10h-71q-7 35 -7 41q0 40 39 62t105 22q59 0 87.5 -25.5t41.5 -82.5l157 -666q7 -26 21.5 -39.5t30.5 -13.5h8q108 202 189 391.5t81 261.5q0 49 -43 49h-69 q-7 14 -7 43q0 39 40 60.5t96 21.5q147 0 147 -127q0 -90 -88.5 -296.5t-197 -403.5t-189.5 -314q-90 -132 -179.5 -184.5t-201.5 -52.5q-141 0 -141 82zM430 1178q23 13 95.5 77t141.5 115t105 51q40 0 59 -19t17 -50q-39 -21 -115.5 -81.5t-140.5 -105.5t-94 -45 q-28 0 -46.5 15.5t-21.5 42.5z" />
<glyph unicode="&#xfe;" horiz-adv-x="1087" d="M147 -315l166 1726q32 23 82 23q44 0 62.5 -14t15.5 -50l-63 -641q67 133 151 204t178 71q56 0 105 -21.5t91 -68t66.5 -130.5t24.5 -198q0 -121 -24 -223t-64 -171.5t-93 -118t-110.5 -71t-116.5 -22.5q-177 0 -268 153l-51 -514q-32 -16 -80 -16q-36 0 -55.5 17.5 t-16.5 64.5zM362 266q91 -135 224 -135q124 0 202 108.5t78 321.5q0 291 -184 291q-85 0 -162 -97t-135 -278z" />
<glyph unicode="&#xff;" horiz-adv-x="1042" d="M29 -309q0 43 18 73h150q149 0 256 160l61 101q-38 0 -66.5 25.5t-39.5 68.5l-183 700q-6 23 -16 33t-29 10h-71q-7 35 -7 41q0 40 39 62t105 22q59 0 87.5 -25.5t41.5 -82.5l157 -666q7 -26 21.5 -39.5t30.5 -13.5h8q108 202 189 391.5t81 261.5q0 49 -43 49h-69 q-7 14 -7 43q0 39 40 60.5t96 21.5q147 0 147 -127q0 -90 -88.5 -296.5t-197 -403.5t-189.5 -314q-90 -132 -179.5 -184.5t-201.5 -52.5q-141 0 -141 82zM311 1235q0 54 24.5 80t76.5 26q86 0 86 -84q0 -104 -105 -104q-82 0 -82 82zM711 1235q0 106 102 106q84 0 84 -84 q0 -104 -102 -104q-84 0 -84 82z" />
<glyph unicode="&#x152;" horiz-adv-x="1998" d="M174 594q0 210 49 375.5t136.5 270.5t204.5 159.5t257 54.5q158 0 275 -94l6 59q27 17 78 17h12h817q12 -20 12 -54q0 -45 -19 -72.5t-52 -27.5h-699l-41 -469h631q12 -20 12 -57q0 -97 -67 -97h-590l-43 -503h743q13 -17 13 -52q0 -47 -18.5 -74.5t-53.5 -27.5h-786 q-33 0 -51 14t-17 54q-134 -90 -315 -90q-109 0 -198 36.5t-155.5 110t-103.5 192.5t-37 275zM336 608q0 -247 93.5 -366t248.5 -119q206 0 323 137l76 891q-90 160 -264 160q-218 0 -347.5 -182.5t-129.5 -520.5z" />
<glyph unicode="&#x153;" horiz-adv-x="1675" d="M143 420q0 141 37.5 254.5t103.5 185.5t153 110t188 38q109 0 191.5 -55.5t125.5 -159.5q67 105 167 160t210 55q143 0 222 -80t79 -189q0 -149 -150 -243t-462 -144q18 -110 81.5 -168.5t157.5 -58.5q93 0 175.5 26t125.5 58q29 -18 29 -59q0 -53 -39 -82 q-115 -88 -315 -88q-229 0 -322 217q-118 -217 -375 -217q-172 0 -277.5 112t-105.5 328zM307 426q0 -152 64 -226.5t170 -74.5q136 0 214.5 104.5t78.5 321.5q0 151 -61.5 230t-164.5 79q-129 0 -215 -115.5t-86 -318.5zM1001 457q256 44 367 110.5t111 161.5 q0 59 -40.5 97t-133.5 38q-56 0 -108.5 -25.5t-96 -74.5t-70.5 -128.5t-29 -178.5z" />
<glyph unicode="&#x178;" horiz-adv-x="1134" d="M190 1409q36 25 86 25q34 0 51.5 -12t24.5 -42q76 -397 283 -786q134 188 260.5 439.5t161.5 389.5q25 11 80 11q24 0 40 -17t13 -41q-11 -118 -176 -415.5t-307 -483.5l-41 -459q-29 -18 -91 -18q-36 0 -53 14t-14 45l37 412q-270 481 -355 938zM442 1686q0 54 24.5 80 t76.5 26q86 0 86 -84q0 -104 -105 -104q-82 0 -82 82zM842 1686q0 106 102 106q84 0 84 -84q0 -104 -102 -104q-84 0 -84 82z" />
<glyph unicode="&#x2c6;" horiz-adv-x="927" d="M238 1184q21 11 67.5 51t89.5 78t91 69t77 31q37 0 93.5 -47.5t115.5 -107t84 -74.5q-12 -47 -53 -56q-18 -4 -35 2q-25 6 -59.5 32t-81 67.5t-70.5 60.5q-27 -18 -81.5 -60.5t-93.5 -68t-65 -31.5q-19 -5 -36 -2q-37 9 -43 56z" />
<glyph unicode="&#x2dc;" horiz-adv-x="985" d="M219 1229q0 39 52 85t118 46q56 0 145 -44t134 -44q86 0 133 61q30 -21 30 -65q0 -41 -46 -78t-111 -37q-51 0 -153 44t-146 44q-33 0 -73.5 -24t-47.5 -43q-35 11 -35 55z" />
<glyph unicode="&#x2000;" horiz-adv-x="951" />
<glyph unicode="&#x2001;" horiz-adv-x="1903" />
<glyph unicode="&#x2002;" horiz-adv-x="951" />
<glyph unicode="&#x2003;" horiz-adv-x="1903" />
<glyph unicode="&#x2004;" horiz-adv-x="634" />
<glyph unicode="&#x2005;" horiz-adv-x="475" />
<glyph unicode="&#x2006;" horiz-adv-x="317" />
<glyph unicode="&#x2007;" horiz-adv-x="317" />
<glyph unicode="&#x2008;" horiz-adv-x="237" />
<glyph unicode="&#x2009;" horiz-adv-x="380" />
<glyph unicode="&#x200a;" horiz-adv-x="105" />
<glyph unicode="&#x2010;" horiz-adv-x="821" d="M150 528q0 95 88 95h516q12 -20 12 -56q0 -48 -21.5 -73t-72.5 -25h-510q-12 32 -12 59z" />
<glyph unicode="&#x2011;" horiz-adv-x="821" d="M150 528q0 95 88 95h516q12 -20 12 -56q0 -48 -21.5 -73t-72.5 -25h-510q-12 32 -12 59z" />
<glyph unicode="&#x2012;" horiz-adv-x="821" d="M150 528q0 95 88 95h516q12 -20 12 -56q0 -48 -21.5 -73t-72.5 -25h-510q-12 32 -12 59z" />
<glyph unicode="&#x2013;" horiz-adv-x="1001" d="M147 532q0 39 19.5 65t56.5 26h715q10 -20 10 -60q0 -94 -82 -94h-706q-1 3 -5 15.5t-6 23.5t-2 24z" />
<glyph unicode="&#x2014;" horiz-adv-x="1294" d="M147 532q0 38 20.5 64.5t61.5 26.5h1000q12 -16 12 -58q0 -41 -17 -68.5t-55 -27.5h-1009q-13 52 -13 63z" />
<glyph unicode="&#x2018;" horiz-adv-x="346" d="M180 1163q0 118 37.5 194.5t87.5 76.5q25 0 36.5 -7.5t14.5 -27.5q-29 -25 -48 -75t-21 -85q84 0 84 -82q0 -108 -103 -108q-88 0 -88 114z" />
<glyph unicode="&#x2019;" horiz-adv-x="346" d="M193 1327q0 107 102 107q90 0 90 -115q0 -118 -38.5 -194t-88.5 -76q-46 0 -51 34q29 25 48.5 74.5t23.5 85.5q-86 0 -86 84z" />
<glyph unicode="&#x201a;" horiz-adv-x="346" d="M86 82q0 108 100 108q44 0 66 -26.5t22 -89.5q0 -117 -37.5 -193t-86.5 -76q-25 0 -37 7.5t-15 27.5q29 24 48.5 74.5t21.5 85.5q-82 0 -82 82z" />
<glyph unicode="&#x201c;" horiz-adv-x="591" d="M180 1165q0 117 38 193t87 76q25 0 36.5 -7t14.5 -26q-29 -25 -48 -75.5t-21 -86.5q84 0 84 -82q0 -108 -103 -108q-88 0 -88 116zM426 1165q0 117 38 193t87 76q25 0 36.5 -7t14.5 -26q-29 -25 -47.5 -74.5t-22.5 -87.5q84 0 84 -82q0 -108 -102 -108q-44 0 -66 26.5 t-22 89.5z" />
<glyph unicode="&#x201d;" horiz-adv-x="591" d="M193 1327q0 107 102 107q44 0 67 -26t23 -89q0 -117 -38.5 -193.5t-88.5 -76.5q-46 0 -51 36q29 25 48.5 74t23.5 86q-86 0 -86 82zM438 1327q0 107 105 107q43 0 65.5 -26t22.5 -89q0 -117 -38.5 -193.5t-86.5 -76.5t-53 36q29 25 48 73.5t23 86.5q-41 0 -63.5 21 t-22.5 61z" />
<glyph unicode="&#x201e;" horiz-adv-x="593" d="M86 82q0 108 100 108q44 0 66 -26.5t22 -89.5q0 -117 -37.5 -193t-86.5 -76q-25 0 -37 7.5t-15 27.5q29 24 48.5 74.5t21.5 85.5q-82 0 -82 82zM330 82q0 108 104 108q88 0 88 -116t-38.5 -192.5t-86.5 -76.5q-26 0 -38 7.5t-13 27.5q28 24 47 74t23 86q-40 0 -63 21.5 t-23 60.5z" />
<glyph unicode="&#x2022;" horiz-adv-x="507" d="M152 516q0 174 161 174q67 0 102.5 -34t35.5 -101q0 -172 -164 -172q-135 0 -135 133z" />
<glyph unicode="&#x2026;" horiz-adv-x="1015" d="M86 82q0 108 100 108q84 0 84 -84q0 -106 -102 -106q-82 0 -82 82zM422 82q0 108 102 108q86 0 86 -84q0 -106 -102 -106q-86 0 -86 82zM762 82q0 108 102 108q84 0 84 -84q0 -106 -100 -106q-86 0 -86 82z" />
<glyph unicode="&#x202f;" horiz-adv-x="380" />
<glyph unicode="&#x2039;" horiz-adv-x="563" d="M117 487q0 50 33 88l315 347q19 8 37 8q28 0 45.5 -20t17.5 -44q0 -35 -28 -63l-279 -309l238 -328q2 -6 2 -27q0 -30 -24 -48.5t-50 -18.5q-34 0 -57 30l-238 330q-12 21 -12 55z" />
<glyph unicode="&#x203a;" horiz-adv-x="563" d="M86 135q0 33 29 62l278 307l-237 330q-2 6 -2 26q0 31 23.5 50.5t49.5 19.5q34 0 58 -31l235 -328q17 -30 17 -55q0 -50 -35 -90l-318 -346q-16 -8 -34 -8q-28 0 -46 20t-18 43z" />
<glyph unicode="&#x205f;" horiz-adv-x="475" />
<glyph unicode="&#x20ac;" horiz-adv-x="1320" d="M94 555q0 2 2 16.5t4 22.5q9 45 90 45h76q4 50 4 76l11 78h-152q-10 27 -10 45q0 42 18.5 64t77.5 22h92q65 261 220.5 392.5t377.5 131.5q148 0 253.5 -36t139.5 -97q24 -44 0 -84q-26 -40 -69 -47q-110 110 -338 110q-152 0 -259 -92.5t-159 -277.5h531q10 -10 10 -37 q0 -18 -3.5 -32.5t-14 -29.5t-33.5 -23.5t-58 -8.5h-465q-4 -26 -8 -82l-6 -72h485q13 -10 13 -37q0 -92 -111 -92h-377q18 -194 110 -279.5t247 -85.5q116 0 219.5 49.5t146.5 118.5q28 7 62 -2q20 -7 32 -22q26 -38 -12 -90q-53 -79 -173.5 -143t-289.5 -64 q-224 0 -357 125t-151 393h-166q-10 18 -10 45z" />
<glyph unicode="&#x2122;" horiz-adv-x="1400" d="M125 1374q0 19 4 29q4 22 23 28.5t59 6.5h485q11 -22 11 -39q0 -29 -13.5 -49.5t-34.5 -20.5h-192l-55 -616q-16 -8 -64 -8q-47 0 -43 86l49 538h-221q-11 21 -8 45zM690 713l96 596q5 28 10 47t15.5 39.5t28 31.5t41.5 11q31 0 53 -11l147 -538l176 438q39 111 101 111 q39 0 69 -15l25 -704q-20 -14 -61 -14q-29 0 -43.5 8t-14.5 32v492l-182 -436q-9 -28 -23.5 -42t-26.5 -17t-32 -3q-58 0 -68 62l-120 436l-74 -492q-8 -40 -62 -40q-42 0 -55 8z" />
<glyph unicode="&#xe000;" horiz-adv-x="983" d="M0 0v983h983v-983h-983z" />
</font>
</defs>
</svg>
